<?xml version="1.0" encoding="UTF-8"?>
<!DOCTYPE svg PUBLIC "-//W3C//DTD SVG 1.1//EN" "http://www.w3.org/Graphics/SVG/1.1/DTD/svg11.dtd">
<!-- Creator: CorelDRAW 2019 (64-Bit) -->
<svg xmlns="http://www.w3.org/2000/svg" xml:space="preserve" width="300px" height="300px" version="1.1" style="shape-rendering:geometricPrecision; text-rendering:geometricPrecision; image-rendering:optimizeQuality; fill-rule:evenodd; clip-rule:evenodd"
viewBox="0 0 300 300"
 xmlns:xlink="http://www.w3.org/1999/xlink">
 <defs>
  <style type="text/css">
   <![CDATA[
    .fil0 {fill:black}
    .fil4 {fill:#008F33}
    .fil3 {fill:#33CC33}
    .fil2 {fill:gray;fill-rule:nonzero}
    .fil1 {fill:white;fill-rule:nonzero}
   ]]>
    .f1 {
        fill: #8f6d28;
        stroke: #000000;
        stroke-opacity: 0;
        opacity: 0;
        animation: w1 6s infinite;
        animation-delay: 0s
      }
      @keyframes w1 {
0% {
          transform: translateY(-40px);
          opacity: 0;
          fill: #c93;
        }

        1.66% {
          transform: translateY(-40px);
          opacity: 0;
          fill: #c93;
        }

        6.66% {
          transform: translateY(0px);
          opacity: 1;
          fill: #8f6d28;
        }

        26.66% {
          transform: translateY(0px);
          opacity: 1;
          fill: #8f6d28;
        }

        31.66% {
          transform: translateY(-40px);
          opacity: 0;
          fill: #8f6d28;
        }

        33.33% {
          transform: translateY(-40px);
          opacity: 0;
          fill: #8f6d28;
        }

        34.66% {
          transform: translateY(-40px);
          opacity: 0;
          fill: #008F33;
        }

        39.66% {
          transform: translateY(0px);
          opacity: 1;
          fill: #008F33;
        }

        59.66% {
          transform: translateY(0px);
          opacity: 1;
          fill: #008F33;
        }

        64.66% {
          transform: translateY(-40px);
          opacity: 0;
          fill: #008F33;
        }

        67.66% {
          transform: translateY(-40px);
          opacity: 0;
          fill: #00468f;
        }

        72.66% {
          transform: translateY(0px);
          opacity: 1;
          fill: #00468f;
        }

        92.66% {
          transform: translateY(0px);
          opacity: 1;
          fill: #00468f;
        }

        97.66% {
          transform: translateY(-40px);
          opacity: 0;
          fill: #00468f;
        }
      }
    .f2{
        fill: #c93;
        stroke: #000000;
        stroke-opacity: 0;
        opacity: 0;
        animation: w2 6s infinite;
        animation-delay: 0s
    }

      @keyframes w2 {
        0% {
          transform: translateY(-40px);
          opacity: 0;
          fill: #c93;
        }

        1.66% {
          transform: translateY(-40px);
          opacity: 0;
          fill: #c93;
        }

        6.66% {
          transform: translateY(0px);
          opacity: 1;
          fill: #c93;
        }

        26.66% {
          transform: translateY(0px);
          opacity: 1;
          fill: #c93;
        }

        31.66% {
          transform: translateY(-40px);
          opacity: 0;
          fill: #c93;
        }

        33.33% {
          transform: translateY(-40px);
          opacity: 0;
          fill: #c93;
        }

        34.66% {
          transform: translateY(-40px);
          opacity: 0;
          fill: #33CC33;
        }

        39.66% {
          transform: translateY(0px);
          opacity: 1;
          fill: #33CC33;
        }

        59.66% {
          transform: translateY(0px);
          opacity: 1;
          fill: #33CC33;
        }

        64.66% {
          transform: translateY(-40px);
          opacity: 0;
          fill: #33CC33;
        }

        67.66% {
          transform: translateY(-40px);
          opacity: 0;
          fill: #33CC33;
        }

        72.66% {
          transform: translateY(0px);
          opacity: 1;
          fill: #0078cd;
        }

        92.66% {
          transform: translateY(0px);
          opacity: 1;
          fill: #0078cd;
        }

        97.66% {
          transform: translateY(-40px);
          opacity: 0;
          fill: #0078cd;
        }
      }

      .f3 {
        fill: #c93;
        stroke: #000000;
        stroke-opacity: 0;
        opacity: 0;
        animation: w3 6s infinite;
        animation-delay: 0s
      }
    @keyframes w3{
        0% {
          transform: translateY(-40px);
          opacity: 0;
          fill: #8f6d28;
        }

        5% {
          transform: translateY(0px);
          opacity: 1;
          fill: #8f6d28;
        }

        28.3% {
          transform: translateY(0px);
          opacity: 1;
          fill: #8f6d28;
        }

        33.3% {
          transform: translateY(-40px);
          opacity: 0;
          fill: #8f6d28;
        }

        38.3% {
          transform: translateY(0px);
          opacity: 1;
          fill: #008F33;
        }

        61.6% {
          transform: translateY(0px);
          opacity: 1;
          fill: #008F33;
        }

        66.6% {
          transform: translateY(-40px);
          opacity: 0;
          fill: #008F33;
        }

        71.6% {
          transform: translateY(0px);
          opacity: 1;
          fill: #00468f;
        }

        94.6% {
          transform: translateY(0px);
          opacity: 1;
          fill: #00468f;
        }

        100% {
          transform: translateY(-40px);
          opacity: 0;
          fill: #00468f;
        }
    }

      .f4 {
        fill: #c93;
        stroke: #000000;
        stroke-opacity: 0;
        opacity: 0;
        animation: w4 6s infinite;
        animation-delay: 0s
      }

      @keyframes w4 {
        0% {
          transform: translateY(-40px);
          opacity: 0;
          fill: #c93;
        }

        5% {
          transform: translateY(0px);
          opacity: 1;
          fill: #c93;
        }

        28.3% {
          transform: translateY(0px);
          opacity: 1;
          fill: #c93;
        }

        33.3% {
          transform: translateY(-40px);
          opacity: 0;
          fill: #c93;
        }

        38.3% {
          transform: translateY(0px);
          opacity: 1;
          fill: #33CC33;
        }

        61.6% {
          transform: translateY(0px);
          opacity: 1;
          fill: #33CC33;
        }

        66.6% {
          transform: translateY(-40px);
          opacity: 0;
          fill: #33CC33;
        }

        71.6% {
          transform: translateY(0px);
          opacity: 1;
          fill: #0078cd;
        }

        94.6% {
          transform: translateY(0px);
          opacity: 1;
          fill: #0078cd;
        }

        100% {
          transform: translateY(-40px);
          opacity: 0;
          fill: #0078cd;
        }
      }

      .f5 {
        fill: #c93;
        stroke: #000000;
        stroke-opacity: 0;
        opacity: 1;
        animation: w5 6s infinite;
        animation-delay: 0s
      }

      @keyframes w5 {
        0% {
          transform: translateY(-40px);
          opacity: 0;
          fill: #8f6d28;
        }

        3.3% {
          transform: translateY(-40px);
          opacity: 0;
          fill: #8f6d28;
        }

        10% {
          transform: translateY(0px);
          opacity: 1;
          fill: #8f6d28;
        }

        23.3% {
          transform: translateY(0px);
          opacity: 1;
          fill: #8f6d28;
        }

        30% {
          transform: translateY(-40px);
          opacity: 0;
          fill: #8f6d28;
        }

        33.3% {
          transform: translateY(-40px);
          opacity: 0;
          fill: #8f6d28;
        }

        36.3% {
          transform: translateY(-40px);
          opacity: 0;
          fill: #008F33;
        }

        46.3% {
          transform: translateY(0px);
          opacity: 1;
          fill: #008F33;
        }

        56.6% {
          transform: translateY(0px);
          opacity: 1;
          fill: #008F33;
        }

        63.3% {
          transform: translateY(-40px);
          opacity: 0;
          fill: #008F33;
        }

        66.66% {
          transform: translateY(-40px);
          opacity: 0;
          fill: #00468f;
        }
        
        69.9% {
          transform: translateY(-40px);
          opacity: 0;
          fill: #00468f;
        }

        76% {
          transform: translateY(0px);
          opacity: 1;
          fill: #00468f;
        }

        89.3% {
          transform: translateY(0px);
          opacity: 1;
          fill: #00468f;
        }

        96.66% {
          transform: translateY(-40px);
          opacity: 0;
          fill: #00468f;
        }

        100% {
          transform: translateY(-40px);
          opacity: 0;
          fill: #00468f;
        }
      }

      .f6 {
        fill: #c93;
        stroke: #000000;
        stroke-opacity: 0;
        opacity: 1;
        animation: w6 6s infinite;
        animation-delay: 0s
      }

      @keyframes w6 {
        0% {
          transform: translateY(-40px);
          opacity: 0;
          fill: #c93;
        }

        3.3% {
          transform: translateY(-40px);
          opacity: 0;
          fill: #c93;
        }

        10% {
          transform: translateY(0px);
          opacity: 1;
          fill: #c93;
        }

        23.3% {
          transform: translateY(0px);
          opacity: 1;
          fill: #c93;
        }

        30% {
          transform: translateY(-40px);
          opacity: 0;
          fill: #c93;
        }

        33.3% {
          transform: translateY(-40px);
          opacity: 0;
          fill: #c93;
        }

        36.3% {
          transform: translateY(-40px);
          opacity: 0;
          fill: #33CC33;
        }

        46.3% {
          transform: translateY(0px);
          opacity: 1;
          fill: #33CC33;
        }

        56.6% {
          transform: translateY(0px);
          opacity: 1;
          fill: #33CC33;
        }

        63.3% {
          transform: translateY(-40px);
          opacity: 0;
          fill: #33CC33;
        }

        66.66% {
          transform: translateY(-40px);
          opacity: 0;
          fill: #33CC33;
        }
        
        69.99% {
          transform: translateY(-40px);
          opacity: 0;
          fill: #0078cd;
        }

        76% {
          transform: translateY(0px);
          opacity: 1;
          fill: #0078cd;
        }

        89.3% {
          transform: translateY(0px);
          opacity: 1;
          fill: #0078cd;
        }

        96.66% {
          transform: translateY(-40px);
          opacity: 0;
          fill: #0078cd;
        }

        100% {
          transform: translateY(-40px);
          opacity: 0;
          fill: #0078cd;
        }
      }
  </style>
 </defs>
 <g id="Layer_x0020_1">
  <metadata id="CorelCorpID_0Corel-Layer"/>
  <polygon class="fil0" points="0,0 300,0 300,300 0,300 "/>
  <path class="fil1" d="M113.16 201.91l-13.74 28.66 -7.16 0 -13.37 -28.66 7.81 0 9.28 21.75 9.37 -21.75 7.81 0zm8.62 28.58l-7.64 0 0 -28.58 7.64 0 0 28.58zm33.24 -19.11c0,2.53 -0.97,4.68 -2.93,6.47 -1.95,1.77 -4.28,2.67 -6.98,2.67l-12.17 0 0 9.97 -7.03 0 0 -28.58 19.59 0c3.05,0 5.46,1.05 7.23,3.15 1.53,1.81 2.29,3.93 2.29,6.32zm-7.97 -0.37c0,-1.22 -0.51,-2.23 -1.51,-3.05 -1.01,-0.81 -2.17,-1.22 -3.48,-1.22l-9.12 0 0 8.83 9.32 0c1.34,0 2.47,-0.44 3.4,-1.3 0.93,-0.87 1.39,-1.96 1.39,-3.26zm41.95 5.15c0,5.57 -1.54,9.56 -4.62,11.96 -2.51,1.94 -6.16,2.9 -10.96,2.9 -5.31,0 -9.24,-1.11 -11.78,-3.35 -2.78,-2.46 -4.17,-6.4 -4.17,-11.83 0,-4.45 1.24,-7.92 3.73,-10.4 2.69,-2.71 6.73,-4.06 12.1,-4.06 5.91,0 10.08,1.3 12.51,3.89 2.12,2.29 3.19,5.92 3.19,10.89zm-7.28 -0.16c0,-2.82 -0.67,-5.06 -2,-6.72 -1.5,-1.86 -3.72,-2.79 -6.67,-2.79 -2.89,0 -5.07,1 -6.54,2.99 -1.23,1.67 -1.84,3.84 -1.84,6.52 0,3.09 0.49,5.37 1.47,6.84 1.37,2.05 3.89,3.07 7.57,3.07 3.1,0 5.28,-0.99 6.54,-2.99 0.98,-1.55 1.47,-3.86 1.47,-6.92zm40.27 14.49l-9.07 0 -13.82 -21.13 0 21.13 -6.83 0 0 -28.58 9.2 0 13.57 21.43 0 -21.43 6.95 0 0 28.58z"/>
  <path class="fil2" d="M102.06 239.17l-8.81 18.4 -4.6 0 -8.58 -18.4 5.01 0 5.96 13.96 6.01 -13.96 5.01 0zm20.33 9.15c0,3.57 -0.98,6.13 -2.96,7.67 -1.61,1.24 -3.95,1.86 -7.03,1.86 -3.41,0 -5.93,-0.71 -7.56,-2.15 -1.78,-1.58 -2.68,-4.11 -2.68,-7.59 0,-2.86 0.8,-5.08 2.39,-6.68 1.73,-1.73 4.32,-2.6 7.77,-2.6 3.8,0 6.47,0.83 8.03,2.5 1.36,1.47 2.04,3.8 2.04,6.99zm-4.67 -0.11c0,-1.8 -0.42,-3.24 -1.28,-4.31 -0.96,-1.19 -2.39,-1.79 -4.28,-1.79 -1.85,0 -3.25,0.64 -4.2,1.92 -0.78,1.07 -1.18,2.46 -1.18,4.18 0,1.98 0.32,3.45 0.95,4.39 0.87,1.32 2.49,1.97 4.85,1.97 2,0 3.39,-0.63 4.2,-1.91 0.63,-1 0.94,-2.49 0.94,-4.45zm25.11 3.09c0,2.41 -0.96,4.12 -2.88,5.11 -1.44,0.74 -3.49,1.1 -6.17,1.1 -2.6,0 -4.7,-0.43 -6.27,-1.28 -2.01,-1.08 -3.02,-2.79 -3.02,-5.11l0 -11.95 4.65 0 0 11.37c0,1.43 0.51,2.47 1.55,3.12 0.75,0.47 1.68,0.7 2.8,0.7 1.91,0 3.22,-0.37 3.94,-1.12 0.61,-0.65 0.92,-1.6 0.92,-2.85l0 -11.22 4.48 0 0 12.13zm17.63 6.21l-8.1 0c-0.82,0 -1.64,-0.11 -2.44,-0.34 -1.56,-0.47 -2.79,-1.55 -3.7,-3.25 -0.83,-1.53 -1.24,-3.32 -1.24,-5.37 0,-1.97 0.37,-3.72 1.11,-5.24 0.8,-1.67 1.95,-2.82 3.43,-3.43 1.16,-0.47 2.34,-0.71 3.54,-0.71l7.35 0 0 3.52 -7.63 0c-1.24,0 -2.15,0.67 -2.71,2.02 -0.43,1.05 -0.65,2.42 -0.65,4.12 0,1.43 0.28,2.65 0.84,3.65 0.64,1.17 1.55,1.75 2.73,1.75l7.47 0 0 3.28zm19.52 0l-4.53 0 0 -7.45 -8.4 0 0 7.45 -4.41 0 0 -18.34 4.41 0 0 7.61 8.4 0 0 -7.61 4.53 0 0 18.34zm19.34 0l-8.94 0c-1.39,0 -2.72,-0.31 -3.99,-0.94 -1.39,-0.68 -2.44,-1.76 -3.16,-3.25 -0.73,-1.48 -1.09,-3.12 -1.09,-4.9 0,-1.76 0.35,-3.36 1.05,-4.8 0.77,-1.55 1.83,-2.69 3.2,-3.4 0.75,-0.38 1.47,-0.65 2.16,-0.81 0.69,-0.16 1.48,-0.24 2.38,-0.24l8.29 0 0 3.28 -7.66 0c-0.69,0 -1.26,0.09 -1.72,0.27 -0.47,0.18 -0.93,0.51 -1.38,0.97 -0.46,0.46 -0.77,0.91 -0.94,1.35 -0.18,0.44 -0.27,0.99 -0.27,1.64l12.07 0 0 3.28 -12.07 0c0,0.59 0.08,1.11 0.24,1.56 0.16,0.44 0.44,0.9 0.86,1.37 0.41,0.48 0.84,0.84 1.29,1.08 0.45,0.25 0.97,0.37 1.59,0.37l8.09 0 0 3.17zm21.49 0l-5.19 0 -4.76 -7.16 -4.95 0 0 7.16 -4.36 0 0 -18.34 13.43 0c1.53,0 2.79,0.59 3.78,1.77 1,1.18 1.5,2.57 1.5,4.18 0,1.27 -0.43,2.35 -1.29,3.24 -0.85,0.89 -1.94,1.45 -3.25,1.68l5.09 7.47zm-5.85 -12.58c0,-0.85 -0.32,-1.51 -0.96,-1.97 -0.64,-0.46 -1.5,-0.69 -2.58,-0.69l-5.51 0 0 5.12 5.64 0c0.82,0 1.55,-0.19 2.2,-0.55 0.81,-0.46 1.21,-1.09 1.21,-1.91z"/>
  <path class="fil2" d="M98.35 245.32c0,1.64 -0.63,3.04 -1.9,4.19 -1.26,1.16 -2.77,1.74 -4.53,1.74l-7.89 0 0 6.47 -4.56 0 0 -18.54 12.7 0c1.98,0 3.55,0.68 4.7,2.04 0.99,1.18 1.48,2.55 1.48,4.1zm-5.17 -0.24c0,-0.79 -0.33,-1.45 -0.98,-1.98 -0.65,-0.53 -1.41,-0.79 -2.25,-0.79l-5.92 0 0 5.73 6.05 0c0.86,0 1.6,-0.29 2.2,-0.85 0.6,-0.56 0.9,-1.26 0.9,-2.11zm25.36 12.64l-4.64 0 -1.57 -4.22 -7.66 0 -1.68 4.22 -4.58 0 7.61 -18.54 4.53 0 7.99 18.54zm-7.64 -7.45l-2.52 -6.53 -2.44 6.53 4.96 0zm26.34 -11.09l-8.17 10.73 0 7.86 -4.38 0 0 -7.86 -8.06 -10.73 5.38 0 4.83 7.37 4.91 -7.37 5.49 0zm23.79 18.54l-4.01 0 0 -14.17 -5.25 14.17 -4.77 0 -5.41 -14.48 0 14.48 -3.88 0 0 -18.54 6.21 0 5.44 14.67 5.22 -14.67 6.45 0 0 18.54zm19.57 0l-9.04 0c-1.4,0 -2.74,-0.32 -4.03,-0.96 -1.4,-0.68 -2.47,-1.78 -3.2,-3.28 -0.73,-1.5 -1.1,-3.15 -1.1,-4.95 0,-1.78 0.35,-3.4 1.06,-4.85 0.78,-1.57 1.86,-2.72 3.24,-3.44 0.76,-0.39 1.48,-0.66 2.18,-0.82 0.7,-0.16 1.5,-0.24 2.4,-0.24l8.39 0 0 3.31 -7.75 0c-0.69,0 -1.27,0.1 -1.74,0.28 -0.47,0.18 -0.93,0.51 -1.39,0.97 -0.46,0.47 -0.78,0.93 -0.95,1.37 -0.18,0.44 -0.27,1 -0.27,1.65l12.2 0 0 3.32 -12.2 0c0,0.6 0.08,1.13 0.24,1.58 0.16,0.45 0.45,0.91 0.87,1.39 0.41,0.48 0.85,0.84 1.3,1.09 0.45,0.25 0.99,0.37 1.61,0.37l8.18 0 0 3.21zm21.54 0l-5.89 0 -8.96 -13.71 0 13.71 -4.43 0 0 -18.54 5.96 0 8.81 13.9 0 -13.9 4.51 0 0 18.54zm19.28 -15.38l-6.92 0 0 15.43 -4.3 0 0 -15.43 -6.81 0 0 -3.16 18.03 0 0 3.16z"/>
  <path class="fil2" d="M93.89 256.58l-6.92 0c-0.7,0 -1.39,-0.09 -2.08,-0.29 -1.33,-0.4 -2.38,-1.32 -3.15,-2.77 -0.7,-1.31 -1.05,-2.84 -1.05,-4.58 0,-1.68 0.31,-3.17 0.94,-4.47 0.68,-1.43 1.66,-2.4 2.93,-2.92 0.98,-0.41 1.99,-0.61 3.02,-0.61l6.26 0 0 3 -6.51 0c-1.06,0 -1.83,0.57 -2.3,1.72 -0.38,0.9 -0.56,2.07 -0.56,3.52 0,1.22 0.24,2.26 0.71,3.11 0.56,1 1.33,1.5 2.33,1.5l6.38 0 0 2.79zm17.5 -5.29c0,2.05 -0.82,3.51 -2.46,4.35 -1.23,0.63 -2.98,0.94 -5.26,0.94 -2.22,0 -4.01,-0.36 -5.35,-1.09 -1.72,-0.92 -2.57,-2.38 -2.57,-4.36l0 -10.19 3.96 0 0 9.69c0,1.23 0.44,2.12 1.32,2.66 0.64,0.41 1.44,0.61 2.39,0.61 1.63,0 2.75,-0.32 3.36,-0.96 0.52,-0.55 0.78,-1.37 0.78,-2.44l0 -9.56 3.83 0 0 10.35zm18.77 0.43c0,1.37 -0.45,2.52 -1.36,3.46 -0.91,0.93 -2.07,1.4 -3.47,1.4l-11.08 0 0 -2.79 9.13 0c0.62,0 1.13,-0.15 1.55,-0.43 0.48,-0.33 0.71,-0.78 0.71,-1.35 0,-1.34 -0.94,-2.01 -2.82,-2.01l-4.6 0c-1.33,0 -2.5,-0.41 -3.5,-1.22 -1,-0.82 -1.5,-1.86 -1.5,-3.13 0,-1.4 0.49,-2.53 1.47,-3.4 0.98,-0.87 2.26,-1.31 3.86,-1.31l10.59 0 0 2.69 -9.34 0c-0.41,0 -0.84,0.17 -1.26,0.52 -0.43,0.35 -0.64,0.76 -0.64,1.23 0,0.54 0.21,0.98 0.62,1.35 0.41,0.36 0.9,0.54 1.48,0.54l5.08 0c1.59,0 2.83,0.41 3.73,1.22 0.9,0.81 1.35,1.89 1.35,3.23zm15.78 -8.12l-5.84 0 0 13.03 -3.62 0 0 -13.03 -5.76 0 0 -2.66 15.22 0 0 2.66zm17.95 5.14c0,3.05 -0.84,5.23 -2.53,6.54 -1.37,1.06 -3.37,1.59 -6,1.59 -2.91,0 -5.05,-0.61 -6.44,-1.83 -1.52,-1.35 -2.28,-3.51 -2.28,-6.48 0,-2.44 0.67,-4.33 2.03,-5.69 1.48,-1.48 3.69,-2.22 6.63,-2.22 3.23,0 5.52,0.71 6.84,2.13 1.17,1.25 1.75,3.24 1.75,5.96zm-3.98 -0.09c0,-1.54 -0.37,-2.77 -1.1,-3.68 -0.82,-1.01 -2.04,-1.52 -3.65,-1.52 -1.58,0 -2.77,0.54 -3.58,1.63 -0.67,0.91 -1.01,2.1 -1.01,3.57 0,1.69 0.27,2.94 0.81,3.75 0.75,1.12 2.13,1.68 4.14,1.68 1.7,0 2.89,-0.55 3.58,-1.64 0.54,-0.85 0.81,-2.12 0.81,-3.79zm25.44 7.93l-3.38 0 0 -11.95 -4.43 11.95 -4.03 0 -4.56 -12.22 0 12.22 -3.27 0 0 -15.64 5.24 0 4.58 12.38 4.41 -12.38 5.44 0 0 15.64zm16.52 0l-7.64 0c-1.17,0 -2.31,-0.26 -3.4,-0.8 -1.18,-0.58 -2.07,-1.51 -2.69,-2.77 -0.62,-1.27 -0.93,-2.66 -0.93,-4.18 0,-1.5 0.3,-2.87 0.89,-4.09 0.66,-1.33 1.57,-2.3 2.73,-2.9 0.64,-0.33 1.26,-0.56 1.85,-0.7 0.59,-0.13 1.26,-0.2 2.03,-0.2l7.07 0 0 2.8 -6.54 0c-0.58,0 -1.07,0.08 -1.46,0.23 -0.4,0.15 -0.79,0.43 -1.18,0.82 -0.39,0.4 -0.66,0.78 -0.81,1.16 -0.14,0.37 -0.22,0.84 -0.22,1.39l10.3 0 0 2.8 -10.3 0c0,0.51 0.07,0.95 0.2,1.33 0.14,0.38 0.38,0.77 0.73,1.17 0.35,0.41 0.72,0.71 1.1,0.92 0.39,0.21 0.84,0.32 1.37,0.32l6.9 0 0 2.7zm18.32 0l-4.42 0 -4.07 -6.11 -4.22 0 0 6.11 -3.71 0 0 -15.64 11.46 0c1.29,0 2.37,0.5 3.22,1.51 0.85,1 1.27,2.19 1.27,3.56 0,1.08 -0.36,2.01 -1.09,2.77 -0.73,0.75 -1.66,1.23 -2.78,1.43l4.34 6.37zm-4.99 -10.73c0,-0.72 -0.27,-1.28 -0.81,-1.68 -0.55,-0.39 -1.28,-0.59 -2.21,-0.59l-4.7 0 0 4.36 4.81 0c0.71,0 1.33,-0.15 1.88,-0.46 0.69,-0.39 1.03,-0.93 1.03,-1.63z"/>
  <path class="fil3 f2" d="M150.45 129.04l47.65 -48.36c-3.44,-4.61 -7.53,-8.7 -12.13,-12.15l-35.52 36.05 0 24.46z"/>
  <path class="fil3 f6" d="M150.45 81.35l20.64 -20.94c-6.38,-2.37 -13.27,-3.68 -20.47,-3.7l-0.17 0.18 0 24.46z"/>
  <path class="fil3 f4" d="M150.45 152.26l55.81 -56.62c2.39,6.43 3.72,13.37 3.77,20.63l-59.58 60.45 0 -24.46z"/>
  <path class="fil4 f1" d="M150.45 104.58l0 24.46 -47.66 -48.36c3.45,-4.61 7.54,-8.7 12.13,-12.15l35.53 36.05z"/>
  <path class="fil4 f5" d="M150.45 56.89l0 24.46 -20.64 -20.94c6.38,-2.37 13.27,-3.68 20.46,-3.7l0.18 0.18z"/>
  <path class="fil4 f3" d="M94.64 95.64l55.81 56.62 0 24.46 -59.59 -60.45c0.05,-7.26 1.39,-14.2 3.78,-20.63z"/>
 </g>
</svg>
