<svg id="Icons" height="512" viewBox="0 0 74 74" width="512" xmlns="http://www.w3.org/2000/svg"><path d="m3.271 33.69a.912.912 0 0 1 -.127-.008 1 1 0 0 1 -.867-1.118c.131-1.03.31-2.054.546-3.129a1 1 0 1 1 1.953.43c-.222 1.015-.391 1.981-.514 2.951a1 1 0 0 1 -.991.874z"/><path d="m37 72a34.829 34.829 0 0 1 -32.54-22.091 1 1 0 0 1 1.859-.738 33 33 0 0 0 63.681-12.171 1 1 0 0 1 2 0 35.04 35.04 0 0 1 -35 35z"/><path d="m3.489 43.77a1 1 0 0 1 -.984-.828c-.167-.956-.3-1.979-.382-3.042a1 1 0 0 1 .916-1.077.989.989 0 0 1 1.078.916c.081 1 .2 1.963.359 2.859a1 1 0 0 1 -.813 1.157 1.04 1.04 0 0 1 -.174.015z"/><path d="m6.439 23.09a1 1 0 0 1 -.9-1.439 35 35 0 0 1 57.532-8 1.017 1.017 0 0 1 -.033 1.4.98.98 0 0 1 -1.371.02c-.019-.017-.066-.066-.084-.085a33 33 0 0 0 -54.247 7.54 1 1 0 0 1 -.897.564z"/><path d="m62.333 15.375h-10a1 1 0 0 1 0-2h9v-9a1 1 0 0 1 2 0v10a1 1 0 0 1 -1 1z"/><path d="m37 57.5a20.5 20.5 0 1 1 20.5-20.5 20.523 20.523 0 0 1 -20.5 20.5zm0-39a18.5 18.5 0 1 0 18.5 18.5 18.522 18.522 0 0 0 -18.5-18.5z"/><path d="m37 38a5.876 5.876 0 1 1 5.875-5.875 1 1 0 0 1 -2 0 3.876 3.876 0 1 0 -3.875 3.875 1 1 0 0 1 0 2z"/><path d="m37 47.751a5.883 5.883 0 0 1 -5.876-5.876 1 1 0 0 1 2 0 3.876 3.876 0 1 0 3.876-3.875 1 1 0 0 1 0-2 5.876 5.876 0 0 1 0 11.751z"/><path d="m37 49.749a1 1 0 0 1 -1-1v-23.5a1 1 0 0 1 2 0v23.5a1 1 0 0 1 -1 1z"/></svg>