<?xml version="1.0" encoding="UTF-8"?>
<!DOCTYPE svg PUBLIC "-//W3C//DTD SVG 1.1//EN" "http://www.w3.org/Graphics/SVG/1.1/DTD/svg11.dtd">
<!-- Creator: CorelDRAW 2019 (64-Bit) -->
<svg xmlns="http://www.w3.org/2000/svg" xml:space="preserve" width="300px" height="300px" version="1.1" style="shape-rendering:geometricPrecision; text-rendering:geometricPrecision; image-rendering:optimizeQuality; fill-rule:evenodd; clip-rule:evenodd"
viewBox="0 0 300 300"
 xmlns:xlink="http://www.w3.org/1999/xlink" fill="#fff">
 <defs>
  <style type="text/css">
   <![CDATA[
     .fil2 {fill:#c93; transform-origin:center; stroke:#000000;stroke-opacity:0;opacity:0;animation: w1 8s infinite linear; animation-delay: 0s}
     @keyframes w1 {
        0%{ transform:scale(1) translateY(-15px); opacity:0; fill:#c69d4e;}
        6%{ transform:scale(1) translateY(0px); opacity:1; fill:#fff;}
        28%{ transform:scale(1) translateY(0px); opacity:1; fill:#fff;}
        34%{ transform:scale(1) translateY(-15px); opacity:0; fill:#c69d4e;}
    }
     .filvipon {fill:#c93; transform-origin:center; stroke:#000000;stroke-opacity:0;opacity:0;animation: w2 8s infinite linear; animation-delay: 0s}
    @keyframes w2 {
       0%{ transform:scale(1) translateY(15px); opacity:0; fill:#c69d4e;}
       6%{ transform:scale(1) translateY(0px); opacity:1; fill:#fff;}
       28%{ transform:scale(1) translateY(0px); opacity:1; fill:#fff;}
       34%{ transform:scale(1) translateY(15px); opacity:0; fill:#c69d4e;}
   }
    .fil6 {fill:#c93; transform-origin:center; stroke:#000000;stroke-opacity:0;opacity:0;animation: w3 8s infinite linear; animation-delay: 0s}
    @keyframes w3 {
       34%{ transform:scale(1) translateY(-15px); opacity:0; fill:#c69d4e;}
       40%{ transform:scale(1) translateY(0px); opacity:1; fill:#fff;}
       61%{ transform:scale(1) translateY(0px); opacity:1; fill:#fff;}
       67%{ transform:scale(1) translateY(-15px); opacity:0; fill:#c69d4e;}
   }
    .fil5 {fill:#c93; transform-origin:center; stroke:#000000;stroke-opacity:0;opacity:0;animation: w4 8s infinite linear; animation-delay: 0s}
    @keyframes w4 {
       34%{ transform:scale(1) translateY(15px); opacity:0; fill:#c69d4e;}
       40%{ transform:scale(1) translateY(0px); opacity:1; fill:#fff;}
       61%{ transform:scale(1) translateY(0px); opacity:1; fill:#fff;}
       67%{ transform:scale(1) translateY(15px); opacity:0; fill:#c69d4e;}
   }
    .fil4 {fill:#c93; transform-origin:center; stroke:#000000;stroke-opacity:0;opacity:0;animation: w5 8s infinite linear; animation-delay: 0s}
    @keyframes w5 {
       67%{ transform:scale(1) translateY(-15px); opacity:0; fill:#c69d4e;}
       73%{ transform:scale(1) translateY(0px); opacity:1; fill:#fff;}
       94%{ transform:scale(1) translateY(0px); opacity:1; fill:#fff;}
       100%{ transform:scale(1) translateY(-15px); opacity:0; fill:#c69d4e;}
   }
    .fil3 {fill:#c93; transform-origin:center; stroke:#000000;stroke-opacity:0;opacity:0;animation: w6 8s infinite linear; animation-delay: 0s}
    @keyframes w6 {
       67%{ transform:scale(1) translateY(15px); opacity:0; fill:#c69d4e;}
       73%{ transform:scale(1) translateY(0px); opacity:1; fill:#fff;}
       94%{ transform:scale(1) translateY(0px); opacity:1; fill:#fff;}
       100%{ transform:scale(1) translateY(15px); opacity:0; fill:#c69d4e;}
   }
    .str0 {stroke:black;stroke-width:2.08;stroke-miterlimit:2.61313}
    .fil0 {fill:black}
   ]]>
  </style>
 </defs>
 <g id="Layer_x0020_1">
  <metadata id="CorelCorpID_0Corel-Layer"/>

  <path class="filvipon" d="M38.37 217.18l-22.71 -63.45 13.89 0 16.11 46.97 15.47 -46.97 13.64 0 -22.56 63.45 -13.84 0zm42.43 0l0 -63.45 12.85 0 0 63.45 -12.85 0zm25.07 0l0 -63.45 20.54 0c7.79,0 12.85,0.31 15.22,0.95 3.63,0.96 6.67,3.02 9.12,6.21 2.46,3.19 3.68,7.32 3.68,12.37 0,3.9 -0.71,7.16 -2.11,9.82 -1.42,2.66 -3.2,4.74 -5.38,6.26 -2.17,1.51 -4.38,2.51 -6.63,3 -3.06,0.61 -7.47,0.92 -13.26,0.92l-8.33 0 0 23.92 -12.85 0zm12.85 -52.73l0 18.08 6.98 0c5.04,0 8.39,-0.34 10.09,-1 1.7,-0.67 3.03,-1.7 3.99,-3.13 0.96,-1.42 1.45,-3.06 1.45,-4.95 0,-2.32 -0.68,-4.23 -2.03,-5.73 -1.35,-1.51 -3.05,-2.45 -5.14,-2.84 -1.52,-0.28 -4.57,-0.43 -9.18,-0.43l-6.16 0zm43.6 21.39c0,-6.47 0.97,-11.9 2.91,-16.31 1.43,-3.23 3.41,-6.14 5.91,-8.71 2.49,-2.57 5.23,-4.48 8.2,-5.73 3.95,-1.67 8.52,-2.51 13.69,-2.51 9.36,0 16.84,2.91 22.46,8.71 5.62,5.82 8.42,13.9 8.42,24.26 0,10.26 -2.79,18.3 -8.36,24.09 -5.57,5.8 -13.03,8.7 -22.35,8.7 -9.43,0 -16.95,-2.88 -22.52,-8.66 -5.57,-5.76 -8.36,-13.71 -8.36,-23.84zm13.2 -0.43c0,7.2 1.67,12.65 5,16.37 3.32,3.71 7.54,5.57 12.65,5.57 5.13,0 9.32,-1.85 12.62,-5.53 3.28,-3.69 4.92,-9.21 4.92,-16.58 0,-7.29 -1.6,-12.72 -4.8,-16.3 -3.19,-3.59 -7.43,-5.37 -12.74,-5.37 -5.28,0 -9.55,1.81 -12.79,5.43 -3.23,3.64 -4.86,9.1 -4.86,16.41zm58.39 31.77l0 -63.45 12.44 0 26.11 42.52 0 -42.52 11.88 0 0 63.45 -12.84 0 -25.71 -41.71 0 41.71 -11.88 0z"/>
  <path class="fil2" d="M197.35 81.66l-94.7 0c-5.99,0 -10.88,4.9 -10.88,10.89l0 30.52c0,5.98 4.89,10.88 10.88,10.88l94.7 0c5.99,0 10.88,-4.9 10.88,-10.88l0 -30.52c0,-5.99 -4.89,-10.89 -10.88,-10.89zm-97.29 7.65l7.49 0 0 20.05c0,3.18 0.09,5.24 0.27,6.18 0.32,1.51 1.07,2.74 2.26,3.65 1.2,0.92 2.82,1.38 4.89,1.38 2.09,0 3.68,-0.43 4.75,-1.3 1.06,-0.87 1.7,-1.93 1.92,-3.2 0.21,-1.26 0.33,-3.36 0.33,-6.28l0 -20.48 7.49 0 0 19.45c0,4.44 -0.2,7.59 -0.61,9.42 -0.4,1.84 -1.14,3.39 -2.23,4.65 -1.07,1.27 -2.52,2.27 -4.33,3.02 -1.82,0.75 -4.18,1.13 -7.09,1.13 -3.53,0 -6.2,-0.41 -8.01,-1.23 -1.82,-0.82 -3.26,-1.88 -4.32,-3.18 -1.06,-1.31 -1.75,-2.67 -2.08,-4.11 -0.49,-2.12 -0.73,-5.26 -0.73,-9.4l0 -19.75zm35.35 25.01l7.28 -0.73c0.44,2.44 1.32,4.22 2.66,5.37 1.33,1.14 3.13,1.71 5.4,1.71 2.39,0 4.2,-0.51 5.41,-1.52 1.22,-1.02 1.83,-2.21 1.83,-3.57 0,-0.88 -0.26,-1.62 -0.77,-2.24 -0.51,-0.61 -1.4,-1.14 -2.68,-1.59 -0.87,-0.31 -2.85,-0.84 -5.95,-1.62 -3.99,-1 -6.78,-2.22 -8.39,-3.68 -2.27,-2.04 -3.4,-4.53 -3.4,-7.46 0,-1.89 0.54,-3.66 1.6,-5.31 1.06,-1.64 2.6,-2.89 4.6,-3.75 2.01,-0.86 4.42,-1.29 7.26,-1.29 4.63,0 8.12,1.02 10.45,3.08 2.34,2.06 3.56,4.8 3.68,8.23l-7.49 0.26c-0.32,-1.91 -1,-3.28 -2.04,-4.12 -1.04,-0.83 -2.61,-1.25 -4.69,-1.25 -2.15,0 -3.84,0.44 -5.06,1.34 -0.78,0.58 -1.18,1.34 -1.18,2.31 0,0.88 0.37,1.63 1.11,2.24 0.94,0.81 3.22,1.63 6.85,2.49 3.63,0.86 6.3,1.75 8.03,2.67 1.74,0.92 3.11,2.17 4.09,3.76 0.98,1.59 1.47,3.55 1.47,5.89 0,2.12 -0.59,4.11 -1.77,5.96 -1.17,1.85 -2.84,3.23 -4.99,4.12 -2.15,0.91 -4.84,1.36 -8.05,1.36 -4.68,0 -8.27,-1.08 -10.77,-3.24 -2.51,-2.16 -4,-5.3 -4.49,-9.42zm36.43 11.98l0 -36.99 27.38 0 0 6.25 -19.89 0 0 8.22 18.5 0 0 6.25 -18.5 0 0 10.02 20.61 0 0 6.25 -28.1 0z"/>
  <path class="fil3" d="M15.68 168.56l14.64 0c2.91,0 5.06,0.12 6.48,0.35 1.44,0.25 2.71,0.75 3.83,1.51 1.12,0.77 2.06,1.78 2.81,3.05 0.75,1.27 1.13,2.7 1.13,4.28 0,1.7 -0.46,3.28 -1.38,4.7 -0.92,1.43 -2.18,2.5 -3.75,3.21 2.22,0.66 3.93,1.77 5.13,3.34 1.19,1.56 1.79,3.4 1.79,5.53 0,1.67 -0.39,3.28 -1.16,4.86 -0.78,1.58 -1.83,2.84 -3.18,3.78 -1.34,0.94 -2.99,1.52 -4.96,1.74 -1.23,0.13 -4.2,0.21 -8.91,0.25l-12.47 0 0 -36.6zm7.42 6.08l0 8.43 4.84 0c2.87,0 4.66,-0.04 5.35,-0.12 1.27,-0.15 2.26,-0.58 2.99,-1.31 0.72,-0.72 1.08,-1.67 1.08,-2.84 0,-1.14 -0.32,-2.05 -0.94,-2.75 -0.62,-0.71 -1.55,-1.14 -2.78,-1.28 -0.73,-0.09 -2.83,-0.13 -6.3,-0.13l-4.24 0zm0 14.52l0 9.81 6.85 0c2.65,0 4.35,-0.07 5.07,-0.22 1.09,-0.2 1.99,-0.69 2.68,-1.46 0.69,-0.79 1.04,-1.82 1.04,-3.12 0,-1.11 -0.27,-2.04 -0.8,-2.81 -0.53,-0.76 -1.31,-1.32 -2.31,-1.67 -1.01,-0.35 -3.2,-0.53 -6.56,-0.53l-5.97 0zm29.5 16l0 -36.6 15.57 0c3.91,0 6.75,0.33 8.53,0.99 1.78,0.65 3.19,1.82 4.26,3.5 1.06,1.68 1.6,3.6 1.6,5.76 0,2.76 -0.8,5.02 -2.41,6.81 -1.61,1.79 -4.02,2.92 -7.22,3.39 1.59,0.92 2.91,1.95 3.94,3.06 1.04,1.12 2.43,3.1 4.19,5.95l4.46 7.14 -8.83 0 -5.3 -7.99c-1.9,-2.84 -3.21,-4.63 -3.91,-5.37 -0.7,-0.73 -1.44,-1.24 -2.23,-1.52 -0.79,-0.27 -2.03,-0.41 -3.74,-0.41l-1.5 0 0 15.29 -7.41 0zm7.41 -21.11l5.47 0c3.55,0 5.76,-0.16 6.64,-0.46 0.88,-0.29 1.58,-0.81 2.07,-1.55 0.5,-0.73 0.75,-1.65 0.75,-2.75 0,-1.23 -0.33,-2.22 -0.99,-2.99 -0.65,-0.76 -1.58,-1.23 -2.78,-1.43 -0.6,-0.09 -2.4,-0.13 -5.39,-0.13l-5.77 0 0 9.31zm62.48 21.11l-7.98 0 -3.16 -8.33 -14.68 0 -3.04 8.33 -7.84 0 14.21 -36.6 7.83 0 14.66 36.6zm-13.54 -14.52l-5.09 -13.55 -4.94 13.55 10.03 0zm17.49 14.52l0 -36.6 7.17 0 15.06 24.53 0 -24.53 6.86 0 0 36.6 -7.41 0 -14.83 -24.06 0 24.06 -6.85 0zm36.92 -36.6l13.47 0c3.05,0 5.36,0.23 6.96,0.7 2.14,0.63 3.98,1.75 5.5,3.37 1.53,1.61 2.69,3.59 3.49,5.93 0.8,2.33 1.2,5.22 1.2,8.65 0,3.01 -0.38,5.6 -1.13,7.78 -0.91,2.67 -2.21,4.83 -3.91,6.47 -1.28,1.25 -3.01,2.23 -5.18,2.92 -1.63,0.52 -3.8,0.78 -6.52,0.78l-13.88 0 0 -36.6zm7.41 6.18l0 24.23 5.49 0c2.06,0 3.54,-0.12 4.45,-0.35 1.2,-0.29 2.19,-0.81 2.97,-1.52 0.8,-0.72 1.44,-1.89 1.93,-3.53 0.5,-1.63 0.75,-3.88 0.75,-6.7 0,-2.83 -0.25,-5 -0.75,-6.51 -0.49,-1.52 -1.19,-2.7 -2.09,-3.55 -0.89,-0.84 -2.03,-1.42 -3.41,-1.72 -1.02,-0.23 -3.04,-0.35 -6.04,-0.35l-3.3 0zm29.25 30.42l0 -36.6 7.41 0 0 36.6 -7.41 0zm14.46 0l0 -36.6 7.17 0 15.06 24.53 0 -24.53 6.85 0 0 36.6 -7.4 0 -14.83 -24.06 0 24.06 -6.85 0zm53.94 -13.45l0 -6.18 15.9 0 0 14.6c-1.55,1.51 -3.79,2.83 -6.73,3.98 -2.93,1.14 -5.9,1.71 -8.92,1.71 -3.82,0 -7.15,-0.8 -10,-2.41 -2.84,-1.61 -4.98,-3.92 -6.41,-6.91 -1.43,-2.99 -2.14,-6.25 -2.14,-9.77 0,-3.82 0.8,-7.21 2.39,-10.18 1.6,-2.97 3.94,-5.25 7.01,-6.83 2.35,-1.22 5.27,-1.83 8.76,-1.83 4.54,0 8.1,0.96 10.65,2.86 2.55,1.92 4.19,4.55 4.93,7.93l-7.37 1.38c-0.51,-1.8 -1.48,-3.22 -2.9,-4.27 -1.41,-1.04 -3.19,-1.56 -5.32,-1.56 -3.22,0 -5.78,1.02 -7.68,3.08 -1.9,2.05 -2.86,5.09 -2.86,9.12 0,4.36 0.97,7.62 2.89,9.79 1.94,2.17 4.46,3.27 7.58,3.27 1.55,0 3.1,-0.31 4.65,-0.92 1.56,-0.6 2.89,-1.34 4,-2.21l0 -4.65 -8.43 0z"/>
  <path class="fil4" d="M197.35 94.18l-94.7 0c-5.99,0 -10.88,4.89 -10.88,10.88l0 30.52c0,5.98 4.89,10.88 10.88,10.88l94.7 0c5.99,0 10.88,-4.9 10.88,-10.88l0 -30.52c0,-5.99 -4.89,-10.88 -10.88,-10.88zm-62.2 41.76l-6.81 0 -2.7 -7.11 -12.53 0 -2.6 7.11 -6.69 0 12.13 -31.25 6.69 0 12.51 31.25zm-11.56 -12.39l-4.34 -11.57 -4.22 11.57 8.56 0zm14.93 12.39l0 -31.25 6.13 0 12.86 20.94 0 -20.94 5.84 0 0 31.25 -6.32 0 -12.66 -20.54 0 20.54 -5.85 0zm31.52 -31.25l11.51 0c2.59,0 4.57,0.2 5.93,0.6 1.83,0.54 3.4,1.5 4.7,2.88 1.31,1.37 2.3,3.06 2.98,5.06 0.68,2 1.02,4.46 1.02,7.39 0,2.57 -0.32,4.78 -0.96,6.64 -0.78,2.28 -1.89,4.12 -3.34,5.52 -1.09,1.07 -2.57,1.9 -4.42,2.5 -1.39,0.44 -3.24,0.66 -5.57,0.66l-11.85 0 0 -31.25zm6.33 5.28l0 20.69 4.69 0c1.75,0 3.02,-0.1 3.8,-0.3 1.02,-0.25 1.87,-0.69 2.53,-1.3 0.68,-0.61 1.23,-1.61 1.65,-3.01 0.43,-1.4 0.64,-3.31 0.64,-5.73 0,-2.41 -0.21,-4.26 -0.64,-5.55 -0.42,-1.3 -1.02,-2.3 -1.78,-3.03 -0.77,-0.72 -1.74,-1.21 -2.91,-1.47 -0.88,-0.19 -2.6,-0.3 -5.16,-0.3l-2.82 0z"/>
  <path class="fil5" d="M18.48 203.7l0 -31.8 9.64 0 5.7 21.69 5.64 -21.69 9.66 0 0 31.8 -5.95 0 -0.02 -25.03 -6.27 25.03 -6.19 0 -6.24 -25.03 -0.02 25.03 -5.95 0zm65.72 0l-6.93 0 -2.75 -7.24 -12.75 0 -2.64 7.24 -6.81 0 12.34 -31.8 6.81 0 12.73 31.8zm-11.76 -12.62l-4.42 -11.76 -4.3 11.76 8.72 0zm15.19 12.62l0 -31.8 13.52 0c3.4,0 5.87,0.29 7.41,0.86 1.55,0.57 2.78,1.58 3.7,3.04 0.93,1.47 1.39,3.13 1.39,5.01 0,2.39 -0.69,4.36 -2.09,5.92 -1.4,1.55 -3.49,2.53 -6.27,2.93 1.38,0.81 2.52,1.7 3.42,2.67 0.9,0.97 2.11,2.69 3.64,5.16l3.88 6.21 -7.68 0 -4.6 -6.95c-1.65,-2.46 -2.78,-4.01 -3.4,-4.66 -0.6,-0.64 -1.25,-1.08 -1.93,-1.32 -0.69,-0.23 -1.77,-0.35 -3.25,-0.35l-1.3 0 0 13.28 -6.44 0zm6.44 -18.34l4.75 0c3.08,0 5,-0.14 5.77,-0.4 0.76,-0.25 1.37,-0.71 1.8,-1.34 0.43,-0.64 0.65,-1.44 0.65,-2.39 0,-1.08 -0.29,-1.93 -0.86,-2.6 -0.57,-0.66 -1.38,-1.07 -2.42,-1.24 -0.52,-0.08 -2.08,-0.12 -4.68,-0.12l-5.01 0 0 8.09zm25.72 18.34l0 -31.8 6.44 0 0 14.09 12.97 -14.09 8.63 0 -12 12.38 12.62 19.42 -8.3 0 -8.75 -14.93 -5.17 5.31 0 9.62 -6.44 0zm31.98 0l0 -31.8 23.54 0 0 5.37 -17.1 0 0 7.06 15.9 0 0 5.38 -15.9 0 0 8.61 17.72 0 0 5.38 -24.16 0zm36.77 0l0 -26.43 -9.42 0 0 -5.37 25.23 0 0 5.37 -9.37 0 0 26.43 -6.44 0zm19.75 0l0 -31.8 6.44 0 0 31.8 -6.44 0zm12.56 0l0 -31.8 6.23 0 13.09 21.31 0 -21.31 5.95 0 0 31.8 -6.43 0 -12.89 -20.9 0 20.9 -5.95 0zm46.86 -11.68l0 -5.38 13.81 0 0 12.69c-1.34,1.31 -3.29,2.46 -5.84,3.46 -2.55,0.99 -5.13,1.48 -7.75,1.48 -3.32,0 -6.22,-0.69 -8.69,-2.09 -2.46,-1.4 -4.32,-3.4 -5.56,-6 -1.25,-2.6 -1.87,-5.44 -1.87,-8.49 0,-3.32 0.7,-6.26 2.08,-8.85 1.39,-2.57 3.42,-4.56 6.09,-5.93 2.04,-1.06 4.58,-1.59 7.61,-1.59 3.95,0 7.03,0.83 9.25,2.49 2.22,1.67 3.64,3.95 4.28,6.88l-6.39 1.2c-0.45,-1.56 -1.29,-2.79 -2.53,-3.71 -1.23,-0.9 -2.77,-1.35 -4.62,-1.35 -2.79,0 -5.02,0.89 -6.67,2.67 -1.65,1.79 -2.48,4.43 -2.48,7.93 0,3.78 0.83,6.62 2.51,8.5 1.68,1.89 3.87,2.84 6.58,2.84 1.34,0 2.69,-0.27 4.04,-0.79 1.35,-0.53 2.51,-1.17 3.48,-1.93l0 -4.03 -7.33 0z"/>
  <path class="fil6" d="M197.35 95.73l-94.7 0c-5.99,0 -10.88,4.89 -10.88,10.88l0 30.52c0,5.98 4.89,10.88 10.88,10.88l94.7 0c5.99,0 10.88,-4.9 10.88,-10.88l0 -30.52c0,-5.99 -4.89,-10.88 -10.88,-10.88zm-91.71 41.76l0 -31.25 21.48 0 0 5.28 -15.15 0 0 7.42 13.1 0 0 5.28 -13.1 0 0 13.27 -6.33 0zm25.35 -15.43c0,-3.19 0.48,-5.87 1.44,-8.03 0.7,-1.6 1.68,-3.03 2.91,-4.3 1.22,-1.26 2.57,-2.2 4.03,-2.82 1.95,-0.82 4.2,-1.23 6.75,-1.23 4.61,0 8.29,1.43 11.06,4.29 2.76,2.86 4.14,6.84 4.14,11.94 0,5.06 -1.37,9.01 -4.11,11.86 -2.74,2.86 -6.42,4.29 -11.01,4.29 -4.64,0 -8.35,-1.42 -11.09,-4.26 -2.74,-2.84 -4.12,-6.75 -4.12,-11.74zm6.51 -0.22c0,3.55 0.82,6.23 2.45,8.06 1.64,1.83 3.72,2.75 6.24,2.75 2.52,0 4.59,-0.91 6.21,-2.72 1.61,-1.82 2.42,-4.54 2.42,-8.17 0,-3.59 -0.78,-6.26 -2.36,-8.02 -1.57,-1.77 -3.66,-2.65 -6.27,-2.65 -2.61,0 -4.71,0.89 -6.3,2.67 -1.59,1.79 -2.39,4.48 -2.39,8.08zm28.75 15.65l0 -31.25 13.29 0c3.34,0 5.77,0.29 7.28,0.85 1.52,0.56 2.73,1.55 3.64,2.99 0.9,1.44 1.36,3.07 1.36,4.92 0,2.35 -0.68,4.29 -2.06,5.81 -1.37,1.53 -3.42,2.49 -6.16,2.89 1.36,0.79 2.48,1.67 3.36,2.62 0.89,0.95 2.09,2.65 3.58,5.08l3.81 6.09 -7.54 0 -4.52 -6.82c-1.62,-2.42 -2.74,-3.95 -3.34,-4.58 -0.6,-0.63 -1.23,-1.07 -1.9,-1.3 -0.68,-0.23 -1.74,-0.35 -3.19,-0.35l-1.28 0 0 13.05 -6.33 0zm6.33 -18.02l4.67 0c3.02,0 4.91,-0.13 5.66,-0.39 0.75,-0.25 1.35,-0.7 1.77,-1.32 0.43,-0.63 0.64,-1.41 0.64,-2.35 0,-1.06 -0.28,-1.9 -0.84,-2.55 -0.56,-0.65 -1.36,-1.06 -2.37,-1.23 -0.52,-0.07 -2.06,-0.11 -4.61,-0.11l-4.92 0 0 7.95z"/>
 </g>
</svg>
