<svg xmlns="http://www.w3.org/2000/svg" xmlns:xlink="http://www.w3.org/1999/xlink" class="sinoos" width="300px"
    xml:space="preserve" version="1.1"
    style="shape-rendering:geometricPrecision; text-rendering:geometricPrecision; image-rendering:optimizeQuality; fill-rule:evenodd; clip-rule:evenodd"
    viewBox="0 0 16000 6000">
    <defs>
        <style type="text/css">
            .blink {
                animation: blink 1.3s infinite;
            }

            @keyframes blink {
                0% {
                    opacity: 0.2;
                }

                50% {
                    opacity: 1;
                }

                100% {
                    opacity: 0.2;
                }
            }

            .fil0si {
                fill: black
            }

            .fil1si {
                fill: #71DDD8
            }

            .fil2si {
                fill: #999999
            }

            .fil3si {
                fill: white
            }
        </style>
    </defs>
    <g id="Layer_x0020_1">
        <metadata id="CorelCorpID_0Corel-Layer" />
        <rect class="fil0si" x="109.95" y="188.25" width="15802.14" height="5563.95" rx="508.96" ry="504.13" />
        <path id="lci" class="fil1si blink"
            d="M1120.53 2759.93l336.96 0c31.04,-173.34 101.6,-342.33 213.87,-493.2 387.26,-520.46 1123.11,-628.43 1643.57,-241.17 249.27,185.48 403.85,450.93 454.79,734.37l336.9 0c-53.74,-385.7 -255.92,-750.51 -593.03,-1001.34 -667.9,-496.98 -1612.22,-358.42 -2109.2,309.48 -156.77,210.69 -250.26,448.89 -283.85,691.86zm2986.39 415.99l-336.96 0c-31.02,173.34 -101.6,342.33 -213.87,493.21 -387.26,520.45 -1123.11,628.43 -1643.57,241.17 -249.27,-185.48 -403.87,-450.93 -454.79,-734.37l-336.9 0c53.75,385.7 255.92,750.51 593.03,1001.35 667.9,496.98 1612.22,358.42 2109.2,-309.48 156.77,-210.69 250.23,-448.88 283.85,-691.86z" />
        <path class="fil2si"
            d="M10524.34 4388.13l0 -567.39 195.47 0c44.11,0 77.79,2.64 101.04,8.06 32.49,7.53 60.22,21.13 83.2,40.68 29.98,25.36 52.3,57.58 67.09,96.94 14.93,39.36 22.32,84.39 22.32,134.98 0,43.06 -5.02,81.22 -15.06,114.51 -10.04,33.28 -22.98,60.89 -38.7,82.68 -15.85,21.79 -33.02,38.96 -51.78,51.38 -18.62,12.55 -41.2,22.06 -67.62,28.53 -26.55,6.47 -56.93,9.64 -91.26,9.64l-204.71 0zm75.28 -66.57l120.98 0c37.38,0 66.7,-3.43 87.96,-10.43 21.26,-7 38.17,-16.78 50.85,-29.45 17.7,-17.83 31.57,-41.87 41.47,-71.98 9.91,-30.11 14.93,-66.57 14.93,-109.49 0,-59.43 -9.78,-105.13 -29.19,-137.09 -19.41,-31.96 -43.06,-53.35 -70.93,-64.19 -20.07,-7.79 -52.43,-11.62 -97.07,-11.62l-119 0 0 434.26zm-602.25 66.57l0 -567.39 409.69 0 0 66.57 -334.41 0 0 174.33 313.02 0 0 66.57 -313.02 0 0 193.35 347.88 0 0 66.57 -423.16 0zm-169.72 -199.04l75.28 19.02c-15.72,61.68 -43.98,108.56 -84.79,140.92 -40.81,32.36 -90.74,48.6 -149.77,48.6 -61.02,0 -110.68,-12.41 -148.98,-37.38 -38.3,-24.83 -67.36,-60.89 -87.3,-108.04 -19.94,-47.28 -29.98,-97.87 -29.98,-152.02 0,-59.04 11.23,-110.55 33.81,-154.53 22.59,-43.98 54.68,-77.39 96.28,-100.24 41.6,-22.85 87.43,-34.2 137.35,-34.2 56.79,0 104.47,14.39 143.04,43.32 38.7,28.93 65.64,69.47 80.83,121.77l-73.7 17.43c-13.07,-41.2 -32.22,-71.32 -57.19,-90.07 -24.96,-18.89 -56.4,-28.26 -94.3,-28.26 -43.45,0 -79.91,10.43 -109.09,31.3 -29.19,20.87 -49.79,49 -61.55,84.13 -11.89,35.26 -17.83,71.59 -17.83,108.96 0,48.21 7,90.34 21,126.26 14,36.06 35.79,62.87 65.37,80.7 29.59,17.83 61.55,26.68 96.02,26.68 42,0 77.39,-12.15 106.45,-36.32 29.06,-24.3 48.74,-60.22 59.04,-108.04zm-977.21 199.04l0 -567.39 77.13 0 297.69 445.35 0 -445.35 72.11 0 0 567.39 -77.13 0 -297.69 -445.35 0 445.35 -72.11 0zm-589.97 0l217.66 -567.39 82.55 0 231 567.39 -85.45 0 -65.64 -171.96 -238.92 0 -61.55 171.96 -79.64 0zm163.24 -232.98l193.35 0 -59.17 -157.3c-17.83,-47.81 -31.3,-87.3 -40.68,-118.47 -7.79,36.98 -18.22,73.3 -31.3,109.22l-62.21 166.54zm-409.16 232.98l-219.24 -567.39 81.36 0 147.39 412.33c11.76,33.02 21.79,63.92 29.72,92.85 8.72,-31.04 18.89,-61.94 30.51,-92.85l152.94 -412.33 76.6 0 -221.22 567.39 -78.06 0zm-733.93 0l0 -567.39 195.47 0c44.11,0 77.79,2.64 101.04,8.06 32.49,7.53 60.23,21.13 83.21,40.68 29.98,25.36 52.3,57.58 67.09,96.94 14.93,39.36 22.32,84.39 22.32,134.98 0,43.06 -5.02,81.22 -15.06,114.51 -10.04,33.28 -22.98,60.89 -38.7,82.68 -15.85,21.79 -33.02,38.96 -51.77,51.38 -18.62,12.55 -41.21,22.06 -67.62,28.53 -26.55,6.47 -56.92,9.64 -91.26,9.64l-204.71 0zm75.28 -66.57l120.98 0c37.38,0 66.7,-3.43 87.96,-10.43 21.26,-7 38.17,-16.78 50.85,-29.45 17.7,-17.83 31.57,-41.87 41.47,-71.98 9.91,-30.11 14.92,-66.57 14.92,-109.49 0,-59.43 -9.77,-105.13 -29.19,-137.09 -19.42,-31.96 -43.06,-53.35 -70.93,-64.19 -20.07,-7.79 -52.43,-11.62 -97.07,-11.62l-119 0 0 434.26zm-666.05 66.57l217.66 -567.39 82.55 0 231 567.39 -85.45 0 -65.64 -171.96 -238.92 0 -61.55 171.96 -79.64 0zm163.24 -232.98l193.35 0 -59.17 -157.3c-17.83,-47.81 -31.3,-87.3 -40.68,-118.47 -7.79,36.98 -18.22,73.3 -31.3,109.22l-62.2 166.54zm-804.46 232.98l0 -567.39 409.69 0 0 66.57 -334.41 0 0 174.33 313.02 0 0 66.57 -313.02 0 0 193.35 347.88 0 0 66.57 -423.16 0zm-533.31 0l0 -567.39 212.91 0c43.32,0 78.06,5.68 104.33,17.17 26.15,11.49 46.62,29.19 61.42,53.09 14.92,23.78 22.32,48.74 22.32,74.89 0,24.17 -6.6,47.02 -19.68,68.41 -13.08,21.4 -32.89,38.7 -59.43,51.91 34.34,10.04 60.75,27.21 79.11,51.51 18.49,24.17 27.74,52.83 27.74,85.85 0,26.68 -5.68,51.38 -16.91,74.23 -11.23,22.85 -25.09,40.41 -41.6,52.83 -16.51,12.28 -37.25,21.66 -62.07,28 -24.96,6.34 -55.47,9.51 -91.66,9.51l-216.47 0zm75.28 -328.87l122.7 0c33.28,0 57.19,-2.24 71.58,-6.6 19.15,-5.68 33.55,-15.19 43.19,-28.39 9.64,-13.21 14.53,-29.72 14.53,-49.66 0,-18.89 -4.49,-35.53 -13.6,-49.79 -8.98,-14.4 -21.93,-24.3 -38.7,-29.58 -16.78,-5.28 -45.57,-7.93 -86.24,-7.93l-113.45 0 0 171.96zm0 262.3l141.32 0c24.3,0 41.34,-0.93 51.24,-2.77 17.17,-3.04 31.7,-8.19 43.32,-15.45 11.62,-7.27 21.13,-17.83 28.66,-31.7 7.53,-13.87 11.22,-29.85 11.22,-47.94 0,-21.26 -5.41,-39.62 -16.37,-55.34 -10.83,-15.72 -25.89,-26.68 -45.17,-33.02 -19.15,-6.34 -46.89,-9.51 -82.94,-9.51l-131.28 0 0 195.73z" />
        <path class="fil3si"
            d="M6943.46 2995.67c0,130.98 -43.54,241.27 -130.63,331.21 -87.08,89.58 -197.72,134.55 -331.92,134.55l-1060 0 0 -267.68 873.7 0c58.53,0 107.78,-13.56 147.76,-41.04 45.68,-31.41 68.52,-74.59 68.52,-129.2 0,-127.77 -89.94,-191.66 -269.82,-191.66l-441.13 0c-101.27,0 -192.57,-24.94 -273.89,-74.64l1349.57 0c45.22,66.31 67.84,145.75 67.84,238.46zm-1499.21 -300.11c-81.23,-75.41 -121.85,-168.72 -121.85,-280.22 0,-133.84 46.76,-242.34 140.26,-325.85 93.51,-83.16 216.64,-124.91 369.4,-124.91l1012.89 0 0 256.97 -892.98 0c-39.97,0 -80.3,16.78 -120.99,49.97 -40.69,33.55 -61.03,72.81 -61.03,118.13 0,51.04 19.63,93.87 58.89,128.84 39.26,34.62 86.73,52.11 142.41,52.11l486.1 0c151.33,0 270.18,38.9 356.55,116.35 3.15,2.83 6.24,5.71 9.27,8.61l-1378.92 0zm2068.83 765.87l-400.45 0 0 -704.22 400.45 0 0 704.22zm-400.45 -765.87l0 -730.99 400.45 0 0 730.99 -400.45 0zm2173.55 765.87l-475.4 0 -460.4 -704.22 363 0 208.75 329.47 0 -329.47 364.04 0 0 704.22zm-976.1 -765.87l-223.1 -341.25 0 341.25 -357.62 0 0 -730.99 481.82 0 463.15 730.99 -364.25 0zm-223.1 61.65l0 704.22 -357.62 0 0 -704.22 357.62 0zm835.15 -61.65l0 -730.99 364.04 0 0 730.99 -364.04 0zm2187.82 61.65c-8.22,267.46 -88.63,460.79 -241.27,579.66 -131.34,101.72 -322.64,152.4 -573.9,152.4 -278.39,0 -483.96,-58.53 -616.73,-175.95 -134.56,-118.72 -206.94,-304.19 -217.16,-556.11l376.68 0c5.3,134.1 30.65,235.33 76.04,303.42 71.38,107.43 203.44,160.96 396.17,160.96 162.75,0 276.96,-52.11 342.63,-156.68 45.35,-71.8 70.69,-174.46 76.02,-307.7l381.53 0zm-1650.31 -61.65c-0,-0.61 -0.01,-1.22 -0.01,-1.83 0,-233.06 64.96,-414.72 194.87,-544.64 141.33,-141.69 352.62,-212.35 633.86,-212.35 309.79,0 528.22,67.81 655.28,203.79 109.16,117.56 164.81,302.69 166.96,555.04l-381.13 0c-1.05,-144.25 -36.02,-259.42 -104.91,-345.18 -78.52,-97.43 -194.87,-145.97 -349.05,-145.97 -151.33,0 -265.54,52.11 -342.63,156.68 -63.21,85.69 -95.32,197.29 -96.34,334.47l-376.91 0zm3429.84 61.65c-8.22,267.46 -88.63,460.79 -241.26,579.66 -131.34,101.72 -322.64,152.4 -573.9,152.4 -278.39,0 -483.96,-58.53 -616.73,-175.95 -134.55,-118.72 -206.94,-304.19 -217.16,-556.11l376.68 0c5.3,134.1 30.64,235.33 76.03,303.42 71.38,107.43 203.44,160.96 396.17,160.96 162.75,0 276.96,-52.11 342.63,-156.68 45.35,-71.8 70.69,-174.46 76.02,-307.7l381.53 0zm-1650.31 -61.65c0,-0.61 -0.01,-1.22 -0.01,-1.83 0,-233.06 64.96,-414.72 194.87,-544.64 141.33,-141.69 352.62,-212.35 633.86,-212.35 309.79,0 528.22,67.81 655.28,203.79 109.16,117.56 164.81,302.69 166.96,555.04l-381.13 0c-1.05,-144.25 -36.02,-259.42 -104.9,-345.18 -78.52,-97.43 -194.87,-145.97 -349.06,-145.97 -151.33,0 -265.54,52.11 -342.63,156.68 -63.21,85.69 -95.33,197.29 -96.34,334.47l-376.91 0zm3400.57 300.11c0,130.98 -43.54,241.27 -130.63,331.21 -87.09,89.58 -197.72,134.55 -331.92,134.55l-1060 0 0 -267.68 873.7 0c58.53,0 107.78,-13.56 147.76,-41.04 45.68,-31.41 68.52,-74.59 68.52,-129.2 0,-127.77 -89.94,-191.66 -269.82,-191.66l-441.13 0c-101.27,0 -192.57,-24.94 -273.89,-74.64l1349.57 0c45.22,66.31 67.84,145.75 67.84,238.46zm-1499.21 -300.11c-81.23,-75.41 -121.85,-168.72 -121.85,-280.22 0,-133.84 46.76,-242.34 140.26,-325.85 93.51,-83.16 216.64,-124.91 369.4,-124.91l1012.89 0 0 256.97 -892.98 0c-39.97,0 -80.3,16.78 -120.99,49.97 -40.69,33.55 -61.03,72.81 -61.03,118.13 0,51.04 19.63,93.87 58.89,128.84 39.26,34.62 86.73,52.11 142.41,52.11l486.1 0c151.33,0 270.18,38.9 356.55,116.35 3.15,2.83 6.23,5.71 9.27,8.61l-1378.92 0z" />
    </g>
</svg>