<svg xmlns="http://www.w3.org/2000/svg" xml:space="preserve" hight="100%" version="1.1"
  style="shape-rendering:geometricPrecision; text-rendering:geometricPrecision; image-rendering:optimizeQuality; fill-rule:evenodd; clip-rule:evenodd"
  viewBox="0 0 5642.76 1620.39" xmlns:xlink="http://www.w3.org/1999/xlink">
  <defs>
    <style type="text/css">
      .fil0v {
        fill: #000
      }

      .fil4v {
        fill: #8F6D28
      }

      .fil2v {
        fill: gray
      }

      .fil3v {
        fill: #CC9933
      }

      .fil1v {
        fill: gray;
        fill-rule: nonzero
      }
    </style>
  </defs>
  <g id="Layer_x0020_1">
    <metadata id="CorelCorpID_0Corel-Layer"></metadata>
    <path class="fil0v"
      d="M2642.73 168.22l0 177.68 0 113.04 0 111.69 0 4.59c0,44.89 -11.21,74.47 -33.66,88.75 -16.32,10.2 -46.92,15.3 -91.8,15.3l-132.35 0 -23.04 0 -27.28 0 -2.09 0 -228.51 0c-124.51,0 -226.38,-101.87 -226.38,-226.38l0 -58.27c0,-124.51 101.87,-226.38 226.38,-226.38l257.88 0 23.04 0 -89.32 0 2.04 0 183.53 0c-6.02,-22.5 -14.35,-40.87 -25,-55.08 -29.59,-37.74 -81.16,-56.61 -154.54,-56.61l-242.05 0 0 0.01 -0.74 -0.01 0 0c-178.93,0 -325.34,146.45 -325.34,325.33l0 83.75c0,178.89 146.41,325.34 325.34,325.34l0 0c11.1,0 22.08,-0.57 32.91,-1.67 11.38,1.11 23.42,1.67 36.13,1.67 385.72,0 129.12,0 514.85,0 73.95,0 125.47,-18.87 154.28,-56.62 25.75,-32.64 38.5,-87.2 38.5,-163.71l0 -514.09 -135.09 0c-31.71,0 -57.7,38.89 -57.7,86.42l0 25.27zm2713.33 290.71l-310.42 0c-44.86,0 -75.48,-5.1 -91.8,-15.3 -23.46,-14.28 -35.19,-43.86 -35.19,-88.74l0 -91.8c0,-39.78 11.73,-66.3 35.19,-79.56 17.34,-10.2 47.94,-15.31 91.8,-15.31l132.32 0 9.97 0 53.02 0c124.52,0 226.39,101.87 226.39,226.38l0 58.27c0,124.51 -101.87,226.38 -226.39,226.38l-53.02 0 -9.97 0 0 -1.59c-11.51,1.06 -24.5,1.59 -38.99,1.59l-302.22 0c-47.53,0 -86.41,25.99 -86.41,57.7l0 54 437.59 0 30.93 0 45.57 0c3.89,0 7.72,-0.06 11.48,-0.16 3.4,0.11 6.8,0.16 10.22,0.16l0 0c178.93,0 325.33,-146.43 325.33,-325.34l0 -83.75c0,-172.76 -136.53,-315.24 -307.04,-324.81l0 -0.52 -18.29 0 -0.75 0 -97.45 0 -269.29 0c-73.43,0 -124.95,18.87 -154.54,56.61 -24.47,32.65 -36.72,87.22 -36.72,163.72l0 73.44c0,76.5 12.24,131.07 36.72,163.72 29.59,37.74 81.1,56.61 154.54,56.61l437.41 0 0 -111.69zm-1767.64 111.69l91.86 0c-39.89,65.02 -111.66,108.63 -193.12,108.63l-53.02 0 -9.98 0 0 -1.59c-11.51,1.06 -24.5,1.59 -38.98,1.59l-302.22 0c-47.53,0 -86.42,25.99 -86.42,57.7l0 54 437.6 0 29.15 0 1.78 0 45.57 0c3.89,0 7.72,-0.06 11.48,-0.16 3.39,0.11 6.8,0.16 10.22,0.16l0 0c142.22,0 263.89,-92.52 307.83,-220.33l73.36 0 3.28 0 181.05 0 387.44 0c43.75,-7.68 75.98,-25.03 96.6,-52.03 25.76,-32.63 38.5,-87.21 38.5,-163.71l0 -298.35 -192.79 0 0 111.69 0 182.08 0 4.59c0,44.87 -11.21,74.46 -33.66,88.74 -16.32,10.2 -46.94,15.3 -91.8,15.3l-80.2 0c7.35,-28.39 11.01,-63.07 11.01,-104.05l0 -298.35 -192.78 0 0 111.69 0 182.08 0 4.59c0,44.87 -11.22,74.46 -33.66,88.74 -15.29,9.56 -43.16,14.64 -83.51,15.24l0 0.05 -6.2 0 -3.28 0 -55.85 0 -144.2 0 -125.04 0 -57.91 0 -32.85 0 -205.82 0c-44.88,0 -75.48,-5.1 -91.8,-15.3 -23.46,-14.28 -35.19,-43.86 -35.19,-88.74l0 -91.8c0,-39.78 11.73,-66.3 35.19,-79.56 17.34,-10.2 47.94,-15.31 91.8,-15.31l132.32 0 9.98 0 53.02 0c124.51,0 226.38,101.87 226.38,226.38l0 4.53 144.13 0 0 -17.27c0,-172.76 -136.54,-315.24 -307.04,-324.81l0 -0.52 -18.3 0 0 0 -0.74 0 -97.45 0 -269.29 0c-73.43,0 -124.95,18.87 -154.54,56.61 -24.48,32.65 -36.72,87.22 -36.72,163.72l0 73.44c0,76.5 12.24,131.07 36.72,163.72 29.59,37.74 81.11,56.61 154.54,56.61l332.82 0 90.76 0zm665.87 220.33l0.06 1.85 0 71.29 -83.98 0c-47.51,0 -86.43,-25.96 -86.43,-57.7l0 -15.44 -155.63 0c-47.52,0 -86.42,-25.96 -86.42,-57.7l0 -54 326.04 0c47.53,0 86.42,25.98 86.42,57.7l0 54 -0.06 0zm89.01 -111.7l256.88 0c47.53,0 86.41,25.99 86.41,57.7l0 54 -256.87 0c-47.51,0 -86.42,-25.96 -86.42,-57.7l0 -54zm-2215.57 -363.77l128 0c60.06,0 109.21,49.16 109.21,109.22l0 102.22 -127.98 0c-60.07,0 -109.24,-49.14 -109.23,-109.22l0 -102.22z">
    </path>
    <path class="fil1v"
      d="M1997.31 1423.91l-124.27 0c-12.59,0 -25.06,-1.74 -37.4,-5.23 -23.86,-7.24 -42.76,-23.8 -56.7,-49.8 -12.6,-23.52 -18.9,-51 -18.9,-82.3 0,-30.23 5.63,-57.04 16.89,-80.3 12.33,-25.74 29.89,-43.23 52.69,-52.61 17.69,-7.24 35.79,-10.86 54.28,-10.86l112.6 0 0 53.89 -117.02 0c-19.03,0 -32.84,10.32 -41.42,30.96 -6.7,16.09 -10.06,37.13 -10.06,63.14 0,21.98 4.29,40.61 12.87,55.9 9.92,17.96 23.86,26.94 41.82,26.94l114.61 0 0 50.27zm314.48 -95.17c0,36.93 -14.75,63.07 -44.24,78.29 -21.98,11.26 -53.49,16.89 -94.5,16.89 -39.94,0 -71.98,-6.57 -96.11,-19.7 -30.83,-16.56 -46.25,-42.69 -46.25,-78.28l0 -183.11 71.19 0 0 174.19c0,21.98 7.9,37.94 23.72,47.79 11.53,7.24 25.87,10.86 43.04,10.86 29.22,0 49.33,-5.77 60.32,-17.3 9.39,-9.85 14.07,-24.46 14.07,-43.7l0 -171.85 68.77 0 0 185.93zm337.4 7.7c0,24.6 -8.18,45.31 -24.53,62.2 -16.35,16.82 -37.13,25.27 -62.33,25.27l-199.06 0 0 -50.27 164.07 0c10.99,0 20.24,-2.55 27.75,-7.71 8.58,-5.9 12.87,-14.01 12.87,-24.26 0,-23.99 -16.89,-35.99 -50.67,-35.99l-82.84 0c-23.86,0 -44.77,-7.37 -62.73,-22.05 -17.96,-14.74 -26.94,-33.45 -26.94,-56.17 0,-25.14 8.78,-45.51 26.34,-61.19 17.56,-15.62 40.68,-23.46 69.37,-23.46l190.21 0 0 48.26 -167.7 0c-7.5,0 -15.08,3.15 -22.72,9.39 -7.64,6.3 -11.46,13.67 -11.46,22.18 0,9.59 3.69,17.63 11.06,24.2 7.37,6.5 16.28,9.78 26.74,9.78l91.29 0c28.42,0 50.74,7.31 66.96,21.85 16.22,14.61 24.33,33.92 24.33,57.98zm283.51 -145.78l-104.96 0 0 234.05 -65.15 0 0 -234.05 -103.35 0 0 -47.85 273.46 0 0 47.85zm322.52 92.3c0,54.76 -15.15,93.96 -45.44,117.56 -24.67,19.1 -60.59,28.62 -107.77,28.62 -52.28,0 -90.89,-10.99 -115.82,-33.04 -27.35,-24.13 -41.02,-62.94 -41.02,-116.35 0,-43.77 12.2,-77.89 36.6,-102.28 26.54,-26.61 66.22,-39.88 119.03,-39.88 58.18,0 99.2,12.73 123.06,38.27 20.91,22.52 31.37,58.24 31.37,107.11zm-71.58 -1.61c0,-27.68 -6.57,-49.73 -19.7,-66.09 -14.75,-18.3 -36.59,-27.41 -65.55,-27.41 -28.42,0 -49.86,9.78 -64.34,29.43 -12.07,16.35 -18.09,37.73 -18.09,64.07 0,30.36 4.82,52.81 14.48,67.29 13.41,20.18 38.2,30.23 74.39,30.23 30.56,0 52.01,-9.79 64.35,-29.42 9.65,-15.28 14.48,-38.01 14.48,-68.1zm457.24 142.56l-60.72 0 0 -214.75 -79.63 214.75 -72.39 0 -82.04 -219.57 0 219.57 -58.71 0 0 -281.1 94.11 0 82.44 222.39 79.22 -222.39 97.72 0 0 281.1zm296.78 0l-137.13 0c-21.18,0 -41.55,-4.82 -61.13,-14.48 -21.18,-10.39 -37.33,-27.01 -48.46,-49.8 -11.13,-22.72 -16.69,-47.79 -16.69,-75.07 0,-27.01 5.37,-51.54 16.09,-73.52 11.8,-23.8 28.15,-41.22 49.06,-52.15 11.53,-5.9 22.59,-10.05 33.18,-12.46 10.59,-2.41 22.72,-3.62 36.4,-3.62l127.07 0 0 50.27 -117.43 0c-10.46,0 -19.24,1.41 -26.34,4.16 -7.11,2.74 -14.14,7.7 -21.11,14.81 -6.97,7.11 -11.8,14.01 -14.48,20.71 -2.68,6.7 -4.02,15.08 -4.02,25.07l184.98 0 0 50.27 -184.98 0c0,9.12 1.2,17.09 3.62,23.93 2.42,6.84 6.84,13.87 13.14,21.11 6.3,7.24 12.94,12.74 19.77,16.49 6.91,3.76 15.01,5.63 24.47,5.63l123.99 0 0 48.66zm329.36 0l-79.49 0 -73.06 -109.78 -75.88 0 0 109.78 -66.76 0 0 -281.1 205.9 0c23.32,0 42.63,9.05 57.91,27.08 15.28,18.03 22.92,39.41 22.92,64.01 0,19.5 -6.57,36.06 -19.7,49.73 -13.14,13.6 -29.76,22.18 -49.87,25.67l78.02 114.61zm-89.69 -192.83c0,-13.07 -4.89,-23.13 -14.67,-30.23 -9.79,-7.04 -22.99,-10.59 -39.61,-10.59l-84.46 0 0 78.42 86.46 0c12.6,0 23.86,-2.81 33.78,-8.38 12.33,-6.97 18.49,-16.69 18.49,-29.22zm490.62 192.83l-124.26 0c-12.59,0 -25.06,-1.74 -37.4,-5.23 -23.86,-7.24 -42.76,-23.8 -56.7,-49.8 -12.6,-23.52 -18.9,-51 -18.9,-82.3 0,-30.23 5.63,-57.04 16.89,-80.3 12.33,-25.74 29.89,-43.23 52.68,-52.61 17.7,-7.24 35.79,-10.86 54.29,-10.86l112.6 0 0 53.89 -117.02 0c-19.03,0 -32.84,10.32 -41.42,30.96 -6.7,16.09 -10.06,37.13 -10.06,63.14 0,21.98 4.29,40.61 12.87,55.9 9.92,17.96 23.86,26.94 41.82,26.94l114.61 0 0 50.27zm265.82 0l-101.74 0c-29.76,0 -53.62,-3.35 -71.58,-10.05 -22.79,-8.58 -39.14,-23.26 -49.06,-44.17 -3.75,-8.04 -6.37,-15.75 -7.84,-23.06 -1.47,-7.37 -2.21,-15.89 -2.21,-25.54l0 -178.28 72.39 0 0 175.8c0,8.04 0.94,15.08 2.81,21.11 1.88,6.03 5.23,12 10.06,17.9 6.7,8.51 14.48,14.14 23.33,16.82 8.85,2.68 20.11,4.02 33.78,4.02l90.08 0 0 45.44zm315.69 -95.17c0,36.93 -14.75,63.07 -44.24,78.29 -21.98,11.26 -53.48,16.89 -94.5,16.89 -39.95,0 -71.98,-6.57 -96.11,-19.7 -30.83,-16.56 -46.25,-42.69 -46.25,-78.28l0 -183.11 71.18 0 0 174.19c0,21.98 7.91,37.94 23.72,47.79 11.53,7.24 25.87,10.86 43.03,10.86 29.22,0 49.33,-5.77 60.32,-17.3 9.38,-9.85 14.07,-24.46 14.07,-43.7l0 -171.85 68.77 0 0 185.93zm300.4 19.17c0,21.18 -7.51,39.15 -22.52,53.89 -15.02,14.75 -33.11,22.12 -54.29,22.12l-182.57 0 0 -281.1 175.34 0c20.64,0 38.54,6.03 53.69,18.09 15.15,12.06 23.79,27.88 25.94,47.46 0.27,1.61 0.4,3.22 0.4,4.82 0,1.61 0,3.22 0,4.83 0,15.02 -3.62,28.22 -10.86,39.61 -7.24,11.39 -18.09,20.31 -32.57,26.74 14.74,5.36 26.34,13.54 34.79,24.53 8.44,10.99 12.67,23.99 12.67,39zm-76.41 -116.62c0,-9.65 -3.02,-17.96 -9.05,-24.93 -6.03,-6.97 -13.74,-10.46 -23.12,-10.46l-88.87 0 0 67.16 92.49 0.4c8.31,0 15.15,-3.15 20.51,-9.45 5.37,-6.3 8.05,-13.87 8.05,-22.72zm3.62 113.81c0,-9.39 -2.95,-17.5 -8.85,-24.33 -5.9,-6.83 -13.41,-10.26 -22.52,-10.26l-94.9 0 0 65.55 96.91 0c8.58,0 15.61,-3.02 21.11,-9.05 5.5,-6.03 8.24,-13.33 8.24,-21.91z">
    </path>
    <polygon class="fil2v" points="1568.81,-51.38 1599.93,-51.38 1599.93,1549.85 1568.81,1549.85 "></polygon>
    <path class="fil3v"
      d="M723.31 1159.59l644.25 -653.65c27.63,74.17 42.99,154.37 43.6,238.11l-687.85 697.89 0 -282.35zm0 -818.65l238.26 -241.74c-73.63,-27.38 -153.2,-42.43 -236.23,-42.67l-2.03 2.06 0 282.35zm0 550.51l550.13 -558.16c-39.75,-53.24 -86.96,-100.52 -140.04,-140.27l-410.09 416.07 0 282.36z">
    </path>
    <path class="fil4v"
      d="M79.06 505.94l644.25 653.65 0 282.35 -687.85 -697.89c0.61,-83.74 15.97,-163.94 43.6,-238.11zm644.25 -447.36l0 282.35 -238.26 -241.74c73.63,-27.38 153.2,-42.43 236.23,-42.67l2.03 2.06zm0 550.5l0 282.36 -550.13 -558.16c39.75,-53.24 86.96,-100.52 140.04,-140.27l410.09 416.07z">
    </path>
  </g>
</svg>