<svg id="line_icons" height="80" viewBox="0 0 74 74" width="80" xmlns="http://www.w3.org/2000/svg" fill="#333"
    data-name="line icons">
    <path
        d="m64.27 18.223h-14.223a1 1 0 0 1 -1-1v-14.223a1 1 0 0 1 1.707-.707l14.223 14.223a1 1 0 0 1 -.707 1.707zm-13.223-2h10.808l-10.808-10.809z" />
    <path
        d="m64.27 72h-54.54a1 1 0 0 1 -1-1v-68a1 1 0 0 1 1-1h40.317a1 1 0 0 1 .707.293l14.223 14.223a1 1 0 0 1 .293.707v53.777a1 1 0 0 1 -1 1zm-53.54-2h52.54v-52.363l-13.637-13.637h-38.903z" />
    <path
        d="m35.747 26.605c-3.923 0-7.236-3.672-7.236-8.019 0-4.738 2.975-8.048 7.236-8.048s7.236 3.31 7.236 8.048c0 4.347-3.313 8.019-7.236 8.019zm0-14.067c-3.132 0-5.236 2.431-5.236 6.048 0 3.263 2.4 6.019 5.236 6.019s5.236-2.756 5.236-6.019c0-3.617-2.104-6.048-5.236-6.048z" />
    <path
        d="m47.619 39.227h-23.738a1 1 0 0 1 -1-1v-2.336a8.6 8.6 0 0 1 8.57-8.412h.768a1 1 0 0 1 .573.18 5.169 5.169 0 0 0 5.916 0 1 1 0 0 1 .573-.18h.756a8.614 8.614 0 0 1 8.582 8.393v2.355a1 1 0 0 1 -1 1zm-22.738-2h21.738v-1.327a6.526 6.526 0 0 0 -6.582-6.422h-.453a7.185 7.185 0 0 1 -7.668 0h-.465a6.584 6.584 0 0 0 -6.57 6.429z" />
    <path d="m56.75 45.333h-39.5a1 1 0 0 1 0-2h39.5a1 1 0 0 1 0 2z" />
    <path d="m56.75 54.414h-39.5a1 1 0 0 1 0-2h39.5a1 1 0 0 1 0 2z" />
    <path d="m56.75 63.494h-39.5a1 1 0 0 1 0-2h39.5a1 1 0 0 1 0 2z" />
</svg>