<?xml version="1.0" encoding="UTF-8"?>
<!DOCTYPE svg PUBLIC "-//W3C//DTD SVG 1.1//EN" "http://www.w3.org/Graphics/SVG/1.1/DTD/svg11.dtd">
<!-- Creator: CorelDRAW 2019 (64-Bit) -->
<svg xmlns="http://www.w3.org/2000/svg" xml:space="preserve" width="200px" height="100px" version="1.1" style="shape-rendering:geometricPrecision; text-rendering:geometricPrecision; image-rendering:optimizeQuality; fill-rule:evenodd; clip-rule:evenodd"
viewBox="0 0 200 100"
 xmlns:xlink="http://www.w3.org/1999/xlink">
 <defs>
  <style type="text/css">
   <![CDATA[
    .fil4 {fill:#8F6D28}
    .fil0 {fill:#999999}
    .fil3 {fill:#CC9933}
    .fil1 {fill:black;fill-rule:nonzero}
    .fil2 {fill:gray;fill-rule:nonzero}
   ]]>
  </style>
 </defs>
 <g id="Layer_x0020_1">
  <metadata id="CorelCorpID_0Corel-Layer"/>
  <g id="_2510653561584">
   <polygon class="fil0" points="58.27,9.14 59.4,9.14 59.4,59.36 58.27,59.36 "/>
   <path class="fil1" d="M96.94 9.35l-12.43 25.93 -6.47 0 -12.1 -25.93 7.06 0 8.4 19.68 8.48 -19.68 7.06 0zm7.81 25.86l-6.92 0 0 -25.86 6.92 0 0 25.86zm30.08 -17.3c0,2.29 -0.88,4.24 -2.65,5.85 -1.77,1.61 -3.87,2.42 -6.32,2.42l-11.01 0 0 9.03 -6.36 0 0 -25.86 17.72 0c2.76,0 4.94,0.95 6.55,2.84 1.38,1.65 2.07,3.56 2.07,5.72zm-7.22 -0.33c0,-1.11 -0.45,-2.02 -1.36,-2.76 -0.92,-0.74 -1.97,-1.11 -3.15,-1.11l-8.25 0 0 7.99 8.44 0c1.21,0 2.23,-0.39 3.07,-1.17 0.84,-0.79 1.25,-1.77 1.25,-2.95zm37.96 4.66c0,5.04 -1.39,8.64 -4.18,10.82 -2.27,1.75 -5.57,2.63 -9.91,2.63 -4.81,0 -8.36,-1.01 -10.66,-3.04 -2.51,-2.22 -3.77,-5.79 -3.77,-10.71 0,-4.02 1.12,-7.16 3.37,-9.41 2.44,-2.44 6.09,-3.66 10.95,-3.66 5.35,0 9.12,1.17 11.32,3.52 1.92,2.07 2.88,5.36 2.88,9.85zm-6.58 -0.15c0,-2.54 -0.61,-4.57 -1.81,-6.08 -1.36,-1.68 -3.37,-2.52 -6.03,-2.52 -2.62,0 -4.59,0.9 -5.92,2.71 -1.11,1.5 -1.67,3.47 -1.67,5.89 0,2.79 0.44,4.86 1.33,6.19 1.24,1.86 3.52,2.78 6.85,2.78 2.81,0 4.78,-0.9 5.92,-2.7 0.89,-1.41 1.33,-3.5 1.33,-6.27zm36.44 13.12l-8.21 0 -12.51 -19.13 0 19.13 -6.18 0 0 -25.86 8.33 0 12.28 19.38 0 -19.38 6.29 0 0 25.86z"/>
   <path class="fil2" d="M80.73 58.82l-6.26 0c-0.63,0 -1.26,-0.09 -1.88,-0.27 -1.2,-0.36 -2.16,-1.19 -2.86,-2.5 -0.63,-1.19 -0.95,-2.57 -0.95,-4.15 0,-1.52 0.28,-2.87 0.85,-4.04 0.62,-1.3 1.51,-2.18 2.65,-2.65 0.89,-0.37 1.81,-0.55 2.74,-0.55l5.67 0 0 2.72 -5.89 0c-0.96,0 -1.66,0.52 -2.09,1.56 -0.34,0.81 -0.51,1.87 -0.51,3.18 0,1.1 0.22,2.04 0.65,2.81 0.5,0.9 1.2,1.36 2.11,1.36l5.77 0 0 2.53zm15.83 -4.79c0,1.86 -0.74,3.17 -2.22,3.94 -1.11,0.56 -2.7,0.85 -4.76,0.85 -2.01,0 -3.63,-0.33 -4.84,-0.99 -1.55,-0.84 -2.33,-2.15 -2.33,-3.95l0 -9.22 3.58 0 0 8.77c0,1.11 0.4,1.91 1.2,2.41 0.58,0.37 1.3,0.55 2.16,0.55 1.48,0 2.49,-0.29 3.04,-0.87 0.47,-0.5 0.71,-1.23 0.71,-2.2l0 -8.66 3.46 0 0 9.37zm17 0.38c0,1.24 -0.42,2.29 -1.24,3.14 -0.82,0.84 -1.87,1.27 -3.14,1.27l-10.02 0 0 -2.53 8.26 0c0.55,0 1.02,-0.13 1.4,-0.39 0.43,-0.3 0.64,-0.71 0.64,-1.22 0,-1.21 -0.85,-1.82 -2.55,-1.82l-4.17 0c-1.2,0 -2.25,-0.37 -3.16,-1.11 -0.9,-0.74 -1.36,-1.68 -1.36,-2.82 0,-1.27 0.45,-2.3 1.33,-3.09 0.89,-0.78 2.05,-1.18 3.49,-1.18l9.58 0 0 2.43 -8.44 0c-0.38,0 -0.76,0.16 -1.14,0.48 -0.39,0.31 -0.58,0.68 -0.58,1.11 0,0.48 0.18,0.89 0.55,1.22 0.38,0.33 0.83,0.49 1.35,0.49l4.6 0c1.43,0 2.55,0.37 3.37,1.1 0.82,0.74 1.23,1.71 1.23,2.92zm14.27 -7.34l-5.28 0 0 11.79 -3.28 0 0 -11.79 -5.21 0 0 -2.41 13.77 0 0 2.41zm16.24 4.65c0,2.76 -0.76,4.73 -2.28,5.92 -1.25,0.96 -3.06,1.44 -5.43,1.44 -2.63,0 -4.58,-0.55 -5.83,-1.66 -1.38,-1.22 -2.07,-3.17 -2.07,-5.86 0,-2.21 0.61,-3.92 1.84,-5.15 1.34,-1.34 3.34,-2.01 6,-2.01 2.93,0 4.99,0.64 6.2,1.93 1.05,1.13 1.57,2.93 1.57,5.39zm-3.6 -0.08c0,-1.39 -0.33,-2.51 -0.99,-3.33 -0.75,-0.92 -1.85,-1.38 -3.3,-1.38 -1.44,0 -2.51,0.49 -3.24,1.48 -0.61,0.83 -0.92,1.9 -0.92,3.23 0,1.53 0.25,2.66 0.73,3.39 0.68,1.01 1.93,1.52 3.75,1.52 1.54,0 2.62,-0.49 3.24,-1.48 0.49,-0.77 0.73,-1.92 0.73,-3.43zm23.03 7.18l-3.06 0 0 -10.82 -4.01 10.82 -3.65 0 -4.13 -11.06 0 11.06 -2.96 0 0 -14.16 4.74 0 4.15 11.2 3.99 -11.2 4.93 0 0 14.16zm14.94 0l-6.91 0c-1.06,0 -2.09,-0.25 -3.07,-0.73 -1.07,-0.52 -1.88,-1.36 -2.44,-2.51 -0.56,-1.14 -0.84,-2.41 -0.84,-3.78 0,-1.36 0.27,-2.59 0.81,-3.7 0.59,-1.2 1.41,-2.08 2.47,-2.63 0.58,-0.29 1.13,-0.5 1.67,-0.63 0.53,-0.12 1.14,-0.18 1.83,-0.18l6.4 0 0 2.53 -5.91 0c-0.53,0 -0.97,0.07 -1.33,0.21 -0.36,0.14 -0.71,0.39 -1.06,0.75 -0.35,0.36 -0.6,0.7 -0.73,1.04 -0.14,0.34 -0.21,0.76 -0.21,1.26l9.32 0 0 2.54 -9.32 0c0,0.46 0.06,0.86 0.19,1.2 0.12,0.35 0.34,0.7 0.66,1.06 0.32,0.37 0.65,0.64 0.99,0.83 0.35,0.19 0.76,0.29 1.24,0.29l6.24 0 0 2.45zm16.59 0l-4.01 0 -3.68 -5.53 -3.82 0 0 5.53 -3.36 0 0 -14.16 10.37 0c1.18,0 2.15,0.46 2.92,1.37 0.77,0.9 1.15,1.98 1.15,3.22 0,0.98 -0.33,1.82 -0.99,2.5 -0.66,0.69 -1.5,1.12 -2.51,1.3l3.93 5.77zm-4.52 -9.71c0,-0.66 -0.25,-1.17 -0.74,-1.52 -0.49,-0.36 -1.16,-0.54 -1.99,-0.54l-4.26 0 0 3.95 4.36 0c0.63,0 1.2,-0.14 1.7,-0.42 0.62,-0.35 0.93,-0.84 0.93,-1.47z"/>
   <path class="fil3" d="M29.51 49.12l23.35 -23.69c1,2.69 1.56,5.59 1.58,8.63l-24.93 25.3 0 -10.24zm0 -29.67l8.63 -8.77c-2.67,-0.99 -5.55,-1.54 -8.56,-1.54l-0.07 0.07 0 10.24zm0 19.95l19.94 -20.23c-1.44,-1.93 -3.15,-3.65 -5.08,-5.09l-14.86 15.09 0 10.23z"/>
   <path class="fil4" d="M6.15 25.43l23.36 23.69 0 10.24 -24.94 -25.3c0.02,-3.04 0.58,-5.94 1.58,-8.63zm23.36 -16.22l0 10.24 -8.64 -8.77c2.67,-0.99 5.55,-1.54 8.56,-1.54l0.08 0.07zm0 19.96l0 10.23 -19.95 -20.23c1.44,-1.93 3.15,-3.65 5.08,-5.09l14.87 15.09z"/>
  </g>
 </g>
</svg>
