<?xml version="1.0" encoding="UTF-8"?>
<!DOCTYPE svg PUBLIC "-//W3C//DTD SVG 1.1//EN" "http://www.w3.org/Graphics/SVG/1.1/DTD/svg11.dtd">
<!-- Creator: CorelDRAW 2019 (64-Bit) -->
<svg xmlns="http://www.w3.org/2000/svg" xml:space="preserve" width="200px" height="100px" version="1.1" style="shape-rendering:geometricPrecision; text-rendering:geometricPrecision; image-rendering:optimizeQuality; fill-rule:evenodd; clip-rule:evenodd"
viewBox="0 0 200 100"
 xmlns:xlink="http://www.w3.org/1999/xlink">
 <defs>
  <style type="text/css">
   <![CDATA[
    .fil4 {fill:#00468F}
    .fil3 {fill:#0078CD}
    .fil0 {fill:#999999}
    .fil1 {fill:black;fill-rule:nonzero}
    .fil2 {fill:gray;fill-rule:nonzero}
   ]]>
  </style>
 </defs>
 <g id="Layer_x0020_1">
  <metadata id="CorelCorpID_0Corel-Layer"/>
  <g id="_2510869161232">
   <polygon class="fil0" points="57.8,9.14 58.93,9.14 58.93,59.36 57.8,59.36 "/>
   <path class="fil1" d="M96.47 9.35l-12.43 25.93 -6.48 0 -12.09 -25.93 7.06 0 8.4 19.68 8.47 -19.68 7.07 0zm7.81 25.86l-6.92 0 0 -25.86 6.92 0 0 25.86zm30.08 -17.3c0,2.29 -0.88,4.24 -2.65,5.85 -1.77,1.61 -3.88,2.42 -6.32,2.42l-11.01 0 0 9.03 -6.36 0 0 -25.86 17.72 0c2.76,0 4.94,0.95 6.55,2.84 1.38,1.65 2.07,3.56 2.07,5.72zm-7.22 -0.33c0,-1.11 -0.45,-2.02 -1.37,-2.76 -0.91,-0.74 -1.96,-1.11 -3.14,-1.11l-8.25 0 0 7.99 8.43 0c1.21,0 2.24,-0.39 3.08,-1.17 0.83,-0.79 1.25,-1.77 1.25,-2.95zm37.96 4.66c0,5.04 -1.39,8.64 -4.18,10.82 -2.27,1.75 -5.57,2.63 -9.91,2.63 -4.81,0 -8.36,-1.01 -10.66,-3.04 -2.51,-2.22 -3.77,-5.79 -3.77,-10.71 0,-4.02 1.12,-7.16 3.36,-9.41 2.45,-2.44 6.1,-3.66 10.96,-3.66 5.35,0 9.12,1.17 11.32,3.52 1.92,2.07 2.88,5.36 2.88,9.85zm-6.58 -0.15c0,-2.54 -0.61,-4.57 -1.81,-6.08 -1.36,-1.68 -3.37,-2.52 -6.04,-2.52 -2.61,0 -4.58,0.9 -5.92,2.71 -1.11,1.5 -1.66,3.47 -1.66,5.89 0,2.79 0.44,4.86 1.33,6.19 1.23,1.86 3.52,2.78 6.85,2.78 2.81,0 4.78,-0.9 5.92,-2.7 0.88,-1.41 1.33,-3.5 1.33,-6.27zm36.44 13.12l-8.21 0 -12.51 -19.13 0 19.13 -6.18 0 0 -25.86 8.33 0 12.28 19.38 0 -19.38 6.29 0 0 25.86z"/>
   <path class="fil2" d="M85.73 47.98c0,1.47 -0.56,2.72 -1.7,3.76 -1.13,1.03 -2.48,1.55 -4.06,1.55l-7.06 0 0 5.79 -4.08 0 0 -16.6 11.37 0c1.77,0 3.17,0.61 4.2,1.83 0.89,1.06 1.33,2.28 1.33,3.67zm-4.63 -0.21c0,-0.71 -0.29,-1.3 -0.88,-1.78 -0.58,-0.47 -1.26,-0.7 -2.02,-0.7l-5.29 0 0 5.12 5.41 0c0.78,0 1.44,-0.25 1.97,-0.75 0.54,-0.51 0.81,-1.14 0.81,-1.89zm22.7 11.31l-4.15 0 -1.41 -3.77 -6.86 0 -1.49 3.77 -4.11 0 6.81 -16.6 4.06 0 7.15 16.6zm-6.84 -6.67l-2.25 -5.84 -2.19 5.84 4.44 0zm23.58 -9.93l-7.31 9.61 0 7.04 -3.92 0 0 -7.04 -7.22 -9.61 4.82 0 4.32 6.61 4.39 -6.61 4.92 0zm21.3 16.6l-3.59 0 0 -12.68 -4.7 12.68 -4.27 0 -4.85 -12.96 0 12.96 -3.46 0 0 -16.6 5.55 0 4.87 13.14 4.68 -13.14 5.77 0 0 16.6zm17.52 0l-8.1 0c-1.25,0 -2.45,-0.28 -3.6,-0.85 -1.26,-0.62 -2.21,-1.6 -2.87,-2.94 -0.65,-1.35 -0.98,-2.83 -0.98,-4.44 0,-1.59 0.32,-3.04 0.95,-4.34 0.7,-1.4 1.66,-2.43 2.9,-3.08 0.68,-0.34 1.33,-0.59 1.95,-0.73 0.63,-0.14 1.35,-0.22 2.15,-0.22l7.51 0 0 2.97 -6.94 0c-0.62,0 -1.13,0.09 -1.55,0.25 -0.42,0.16 -0.84,0.45 -1.25,0.87 -0.41,0.42 -0.7,0.83 -0.85,1.22 -0.16,0.4 -0.24,0.9 -0.24,1.48l10.92 0 0 2.97 -10.92 0c0,0.54 0.07,1.01 0.21,1.42 0.15,0.4 0.41,0.82 0.78,1.24 0.37,0.43 0.76,0.75 1.17,0.98 0.4,0.22 0.88,0.33 1.44,0.33l7.32 0 0 2.87zm19.28 0l-5.27 0 -8.03 -12.27 0 12.27 -3.96 0 0 -16.6 5.34 0 7.88 12.45 0 -12.45 4.04 0 0 16.6zm17.26 -13.77l-6.19 0 0 13.82 -3.85 0 0 -13.82 -6.1 0 0 -2.83 16.14 0 0 2.83z"/>
   <path class="fil3" d="M29.03 49.12l23.36 -23.69c1,2.69 1.56,5.59 1.58,8.63l-24.94 25.3 0 -10.24zm0 -29.67l8.64 -8.77c-2.67,-0.99 -5.55,-1.54 -8.56,-1.54l-0.08 0.07 0 10.24zm0 19.95l19.95 -20.23c-1.44,-1.93 -3.15,-3.65 -5.08,-5.09l-14.87 15.09 0 10.23z"/>
   <path class="fil4" d="M5.68 25.43l23.35 23.69 0 10.24 -24.93 -25.3c0.02,-3.04 0.58,-5.94 1.58,-8.63zm23.35 -16.22l0 10.24 -8.63 -8.77c2.67,-0.99 5.55,-1.54 8.56,-1.54l0.07 0.07zm0 19.96l0 10.23 -19.94 -20.23c1.44,-1.93 3.15,-3.65 5.08,-5.09l14.86 15.09z"/>
  </g>
 </g>
</svg>
