<?xml version="1.0" encoding="UTF-8"?>
<!DOCTYPE svg PUBLIC "-//W3C//DTD SVG 1.1//EN" "http://www.w3.org/Graphics/SVG/1.1/DTD/svg11.dtd">
<!-- Creator: CorelDRAW 2019 (64-Bit) -->
<svg xmlns="http://www.w3.org/2000/svg" xml:space="preserve" width="200px" height="100px" version="1.1" style="shape-rendering:geometricPrecision; text-rendering:geometricPrecision; image-rendering:optimizeQuality; fill-rule:evenodd; clip-rule:evenodd"
viewBox="0 0 200 100"
 xmlns:xlink="http://www.w3.org/1999/xlink">
 <defs>
  <style type="text/css">
   <![CDATA[
    .fil4 {fill:#008F33}
    .fil3 {fill:#33CC33}
    .fil0 {fill:#999999}
    .fil1 {fill:black;fill-rule:nonzero}
    .fil2 {fill:gray;fill-rule:nonzero}
   ]]>
  </style>
 </defs>
 <g id="Layer_x0020_1">
  <metadata id="CorelCorpID_0Corel-Layer"/>
  <g id="_2510519146992">
   <polygon class="fil0" points="58.27,9.12 59.4,9.12 59.4,59.35 58.27,59.35 "/>
   <path class="fil1" d="M96.94 9.33l-12.43 25.94 -6.47 0 -12.1 -25.94 7.06 0 8.4 19.69 8.48 -19.69 7.06 0zm7.81 25.86l-6.92 0 0 -25.86 6.92 0 0 25.86zm30.08 -17.29c0,2.28 -0.88,4.23 -2.65,5.85 -1.77,1.61 -3.87,2.42 -6.32,2.42l-11.01 0 0 9.02 -6.36 0 0 -25.86 17.72 0c2.76,0 4.94,0.95 6.55,2.84 1.38,1.65 2.07,3.56 2.07,5.73zm-7.22 -0.34c0,-1.1 -0.45,-2.02 -1.36,-2.76 -0.92,-0.73 -1.97,-1.1 -3.15,-1.1l-8.25 0 0 7.99 8.44 0c1.21,0 2.23,-0.4 3.07,-1.18 0.84,-0.79 1.25,-1.77 1.25,-2.95zm37.96 4.67c0,5.03 -1.39,8.64 -4.18,10.81 -2.27,1.76 -5.57,2.63 -9.91,2.63 -4.81,0 -8.36,-1.01 -10.66,-3.04 -2.51,-2.22 -3.77,-5.79 -3.77,-10.7 0,-4.03 1.12,-7.17 3.37,-9.41 2.44,-2.45 6.09,-3.67 10.95,-3.67 5.35,0 9.12,1.17 11.32,3.52 1.92,2.07 2.88,5.36 2.88,9.86zm-6.58 -0.15c0,-2.55 -0.61,-4.58 -1.81,-6.08 -1.36,-1.69 -3.37,-2.52 -6.03,-2.52 -2.62,0 -4.59,0.9 -5.92,2.7 -1.11,1.51 -1.67,3.47 -1.67,5.9 0,2.79 0.44,4.86 1.33,6.19 1.24,1.85 3.52,2.78 6.85,2.78 2.81,0 4.78,-0.9 5.92,-2.71 0.89,-1.4 1.33,-3.49 1.33,-6.26zm36.44 13.11l-8.21 0 -12.51 -19.12 0 19.12 -6.18 0 0 -25.86 8.33 0 12.28 19.39 0 -19.39 6.29 0 0 25.86z"/>
   <path class="fil2" d="M87.25 42.47l-7.98 16.64 -4.16 0 -7.76 -16.64 4.53 0 5.39 12.63 5.44 -12.63 4.54 0zm18.4 8.28c0,3.23 -0.9,5.54 -2.69,6.94 -1.45,1.12 -3.57,1.69 -6.36,1.69 -3.09,0 -5.37,-0.65 -6.84,-1.95 -1.61,-1.43 -2.42,-3.72 -2.42,-6.87 0,-2.59 0.72,-4.6 2.16,-6.04 1.57,-1.57 3.91,-2.36 7.03,-2.36 3.43,0 5.86,0.75 7.26,2.26 1.24,1.33 1.86,3.44 1.86,6.33zm-4.23 -0.1c0,-1.63 -0.39,-2.94 -1.16,-3.9 -0.87,-1.08 -2.16,-1.62 -3.87,-1.62 -1.68,0 -2.95,0.58 -3.8,1.74 -0.71,0.96 -1.07,2.23 -1.07,3.78 0,1.79 0.28,3.12 0.85,3.97 0.8,1.19 2.26,1.79 4.4,1.79 1.8,0 3.07,-0.58 3.8,-1.74 0.57,-0.9 0.85,-2.24 0.85,-4.02zm22.72 2.8c0,2.18 -0.87,3.72 -2.61,4.62 -1.3,0.67 -3.16,1 -5.58,1 -2.36,0 -4.25,-0.39 -5.67,-1.17 -1.82,-0.97 -2.73,-2.52 -2.73,-4.62l0 -10.81 4.2 0 0 10.29c0,1.29 0.47,2.24 1.4,2.82 0.68,0.42 1.53,0.64 2.54,0.64 1.73,0 2.91,-0.34 3.56,-1.02 0.55,-0.58 0.83,-1.45 0.83,-2.58l0 -10.15 4.06 0 0 10.98zm15.96 5.62l-7.34 0c-0.74,0 -1.48,-0.11 -2.21,-0.31 -1.4,-0.43 -2.52,-1.41 -3.34,-2.94 -0.75,-1.39 -1.12,-3.01 -1.12,-4.86 0,-1.79 0.33,-3.37 1,-4.74 0.73,-1.52 1.76,-2.55 3.11,-3.11 1.04,-0.42 2.11,-0.64 3.2,-0.64l6.65 0 0 3.18 -6.91 0c-1.12,0 -1.94,0.61 -2.44,1.83 -0.4,0.95 -0.6,2.19 -0.6,3.73 0,1.3 0.26,2.4 0.76,3.3 0.59,1.06 1.41,1.59 2.47,1.59l6.77 0 0 2.97zm17.66 0l-4.1 0 0 -6.75 -7.6 0 0 6.75 -3.99 0 0 -16.6 3.99 0 0 6.89 7.6 0 0 -6.89 4.1 0 0 16.6zm17.5 0l-8.09 0c-1.26,0 -2.46,-0.29 -3.61,-0.86 -1.25,-0.61 -2.21,-1.59 -2.87,-2.94 -0.65,-1.34 -0.98,-2.82 -0.98,-4.43 0,-1.59 0.32,-3.04 0.95,-4.34 0.7,-1.41 1.66,-2.43 2.9,-3.08 0.68,-0.35 1.33,-0.59 1.96,-0.73 0.62,-0.15 1.34,-0.22 2.14,-0.22l7.51 0 0 2.97 -6.94 0c-0.61,0 -1.13,0.08 -1.55,0.24 -0.42,0.17 -0.84,0.46 -1.25,0.88 -0.41,0.42 -0.69,0.83 -0.85,1.22 -0.16,0.4 -0.24,0.89 -0.24,1.48l10.92 0 0 2.97 -10.92 0c0,0.54 0.07,1.01 0.21,1.41 0.15,0.41 0.41,0.82 0.78,1.25 0.37,0.43 0.76,0.75 1.17,0.97 0.4,0.22 0.88,0.33 1.44,0.33l7.32 0 0 2.88zm19.45 0l-4.7 0 -4.31 -6.48 -4.48 0 0 6.48 -3.94 0 0 -16.6 12.16 0c1.37,0 2.51,0.54 3.42,1.6 0.9,1.06 1.35,2.33 1.35,3.78 0,1.15 -0.39,2.13 -1.16,2.94 -0.78,0.8 -1.76,1.31 -2.95,1.51l4.61 6.77zm-5.3 -11.39c0,-0.77 -0.29,-1.36 -0.86,-1.78 -0.58,-0.42 -1.36,-0.63 -2.34,-0.63l-4.99 0 0 4.63 5.11 0c0.74,0 1.41,-0.16 1.99,-0.49 0.73,-0.41 1.09,-0.99 1.09,-1.73z"/>
   <path class="fil3" d="M29.5 49.11l23.36 -23.7c1,2.69 1.56,5.6 1.58,8.64l-24.94 25.3 0 -10.24zm0 -29.68l8.64 -8.76c-2.67,-0.99 -5.55,-1.54 -8.56,-1.55l-0.08 0.08 0 10.23zm0 19.96l19.95 -20.23c-1.44,-1.94 -3.15,-3.65 -5.08,-5.09l-14.87 15.08 0 10.24z"/>
   <path class="fil4" d="M6.15 25.41l23.35 23.7 0 10.24 -24.93 -25.3c0.02,-3.04 0.58,-5.95 1.58,-8.64zm23.35 -16.21l0 10.23 -8.63 -8.76c2.67,-0.99 5.55,-1.54 8.56,-1.55l0.07 0.08zm0 19.95l0 10.24 -19.94 -20.23c1.44,-1.94 3.15,-3.65 5.08,-5.09l14.86 15.08z"/>
  </g>
 </g>
</svg>
